<svg width="60" height="56" viewBox="0 0 60 56" fill="none" xmlns="http://www.w3.org/2000/svg">
    <rect width="60" height="56" rx="28" fill="white"/>
    <g filter="url(#filter0_d_7363_22403)">
        <path d="M16.9102 17.9336C16.9102 16.3134 18.2235 15 19.8437 15H43.3121C44.9322 15 46.2457 16.3134 46.2457 17.9336V34.0681C46.2457 35.6883 44.9322 37.0017 43.3121 37.0017H19.8437C18.2235 37.0017 16.9102 35.6883 16.9102 34.0681V17.9336Z" fill="url(#paint0_linear_7363_22403)"/>
    </g>
    <path d="M13 22.2117V23.6174H41.1132V22.2117C41.1132 20.6591 39.8546 19.4004 38.3019 19.4004H15.8113C14.2587 19.4004 13 20.6591 13 22.2117Z" fill="url(#paint1_linear_7363_22403)"/>
    <path fill-rule="evenodd" clip-rule="evenodd" d="M41.1132 25.0234V39.08C41.1132 40.6326 39.8546 41.8914 38.3019 41.8914H15.8113C14.2587 41.8914 13 40.6326 13 39.08V25.0234H41.1132ZM35.4906 30.6461C36.2669 30.6461 36.8962 30.0167 36.8962 29.2404C36.8962 28.4641 36.2669 27.8348 35.4906 27.8348C34.7143 27.8348 34.0849 28.4641 34.0849 29.2404C34.0849 30.0167 34.7143 30.6461 35.4906 30.6461Z" fill="url(#paint2_linear_7363_22403)"/>
    <path d="M19.7215 37.4291C19.7215 38.2054 19.0921 38.8348 18.3158 38.8348C17.5395 38.8348 16.9102 38.2054 16.9102 37.4291C16.9102 36.6528 17.5395 36.0234 18.3158 36.0234C19.0921 36.0234 19.7215 36.6528 19.7215 37.4291Z" fill="#FFF3E7"/>
    <path d="M19.7215 33.4564C19.7215 34.2328 19.0921 34.8621 18.3158 34.8621C17.5395 34.8621 16.9102 34.2328 16.9102 33.4564C16.9102 32.6801 17.5395 32.0508 18.3158 32.0508C19.0921 32.0508 19.7215 32.6801 19.7215 33.4564Z" fill="#FFF3E7"/>
    <path d="M19.7215 29.2396C19.7215 30.016 19.0921 30.6453 18.3158 30.6453C17.5395 30.6453 16.9102 30.016 16.9102 29.2396C16.9102 28.4633 17.5395 27.834 18.3158 27.834C19.0921 27.834 19.7215 28.4633 19.7215 29.2396Z" fill="#FFF3E7"/>
    <path d="M25.5887 37.4291C25.5887 38.2054 24.9593 38.8348 24.183 38.8348C23.4067 38.8348 22.7773 38.2054 22.7773 37.4291C22.7773 36.6528 23.4067 36.0234 24.183 36.0234C24.9593 36.0234 25.5887 36.6528 25.5887 37.4291Z" fill="#FFF3E7"/>
    <path d="M25.5887 33.5189C25.5887 34.2953 24.9593 34.9246 24.183 34.9246C23.4067 34.9246 22.7773 34.2953 22.7773 33.5189C22.7773 32.7426 23.4067 32.1133 24.183 32.1133C24.9593 32.1133 25.5887 32.7426 25.5887 33.5189Z" fill="#FFF3E7"/>
    <path d="M25.6492 29.2396C25.6492 30.016 25.0199 30.6453 24.2436 30.6453C23.4672 30.6453 22.8379 30.016 22.8379 29.2396C22.8379 28.4633 23.4672 27.834 24.2436 27.834C25.0199 27.834 25.6492 28.4633 25.6492 29.2396Z" fill="#FFF3E7"/>
    <path d="M31.4559 37.4291C31.4559 38.2054 30.8265 38.8348 30.0502 38.8348C29.2739 38.8348 28.6445 38.2054 28.6445 37.4291C28.6445 36.6528 29.2739 36.0234 30.0502 36.0234C30.8265 36.0234 31.4559 36.6528 31.4559 37.4291Z" fill="#FFF3E7"/>
    <path d="M31.2723 33.4564C31.2723 34.2328 30.6429 34.8621 29.8666 34.8621C29.0903 34.8621 28.4609 34.2328 28.4609 33.4564C28.4609 32.6801 29.0903 32.0508 29.8666 32.0508C30.6429 32.0508 31.2723 32.6801 31.2723 33.4564Z" fill="#FFF3E7"/>
    <path d="M31.2723 29.2396C31.2723 30.016 30.6429 30.6453 29.8666 30.6453C29.0903 30.6453 28.4609 30.016 28.4609 29.2396C28.4609 28.4633 29.0903 27.834 29.8666 27.834C30.6429 27.834 31.2723 28.4633 31.2723 29.2396Z" fill="#FFF3E7"/>
    <path d="M36.8953 37.6732C36.8953 38.4496 36.266 39.0789 35.4896 39.0789C34.7133 39.0789 34.084 38.4496 34.084 37.6732C34.084 36.8969 34.7133 36.2676 35.4896 36.2676C36.266 36.2676 36.8953 36.8969 36.8953 37.6732Z" fill="#FFF3E7"/>
    <path d="M36.8953 33.4564C36.8953 34.2328 36.266 34.8621 35.4896 34.8621C34.7133 34.8621 34.084 34.2328 34.084 33.4564C34.084 32.6801 34.7133 32.0508 35.4896 32.0508C36.266 32.0508 36.8953 32.6801 36.8953 33.4564Z" fill="#FFF3E7"/>
    <defs>
        <filter id="filter0_d_7363_22403" x="13.9766" y="12.0664" width="35.203" height="27.8691" filterUnits="userSpaceOnUse" color-interpolation-filters="sRGB">
            <feFlood flood-opacity="0" result="BackgroundImageFix"/>
            <feColorMatrix in="SourceAlpha" type="matrix" values="0 0 0 0 0 0 0 0 0 0 0 0 0 0 0 0 0 0 127 0" result="hardAlpha"/>
            <feOffset/>
            <feGaussianBlur stdDeviation="1.46678"/>
            <feComposite in2="hardAlpha" operator="out"/>
            <feColorMatrix type="matrix" values="0 0 0 0 1 0 0 0 0 1 0 0 0 0 1 0 0 0 0.8 0"/>
            <feBlend mode="normal" in2="BackgroundImageFix" result="effect1_dropShadow_7363_22403"/>
            <feBlend mode="normal" in="SourceGraphic" in2="effect1_dropShadow_7363_22403" result="shape"/>
        </filter>
        <linearGradient id="paint0_linear_7363_22403" x1="46.2457" y1="26.1334" x2="18.3229" y2="32.8003" gradientUnits="userSpaceOnUse">
            <stop stop-color="#FFC995"/>
            <stop offset="0.310086" stop-color="#FCDFC3"/>
            <stop offset="1" stop-color="#FFE0C1"/>
        </linearGradient>
        <linearGradient id="paint1_linear_7363_22403" x1="27.0566" y1="19.4004" x2="27.0566" y2="23.6174" gradientUnits="userSpaceOnUse">
            <stop offset="0.0239996" stop-color="#FFA73D"/>
            <stop offset="0.599" stop-color="#FF8B00"/>
            <stop offset="1" stop-color="#EE8200"/>
        </linearGradient>
        <linearGradient id="paint2_linear_7363_22403" x1="27.0566" y1="25.0234" x2="27.0566" y2="41.8914" gradientUnits="userSpaceOnUse">
            <stop offset="0.0239996" stop-color="#FFA73D"/>
            <stop offset="0.599" stop-color="#FF8B00"/>
            <stop offset="1" stop-color="#EE8200"/>
        </linearGradient>
    </defs>
</svg>
