<svg width="25" height="24" viewBox="0 0 25 24" fill="none" xmlns="http://www.w3.org/2000/svg">
<g id="Outline/write">
<path id="Vector" fill-rule="evenodd" clip-rule="evenodd" d="M6.79883 13.5007V14.7912C6.79883 15.4588 7.34004 16 8.00766 16H9.29811C9.61872 16 9.92619 15.8727 10.1529 15.646L17.9441 7.85479C18.4161 7.38271 18.4161 6.61732 17.9441 6.14524L16.6536 4.85479C16.1815 4.38271 15.4161 4.38271 14.9441 4.85479L7.15289 12.646C6.92619 12.8727 6.79883 13.1801 6.79883 13.5007ZM4.79883 19.25C4.38461 19.25 4.04883 19.5858 4.04883 20C4.04883 20.4142 4.38461 20.75 4.79883 20.75H20.7988C21.213 20.75 21.5488 20.4142 21.5488 20C21.5488 19.5858 21.213 19.25 20.7988 19.25H4.79883Z" fill="#FF8B00"/>
</g>
</svg>
