<svg width="69" height="62" viewBox="0 0 69 62" fill="none" xmlns="http://www.w3.org/2000/svg">
<circle cx="30.999" cy="30.9998" r="31" fill="url(#paint0_linear_5891_22394)"/>
<path d="M26.0811 13.4269C26.0811 10.9593 28.065 8.95898 30.5124 8.95898H63.7478C66.195 8.95898 68.1792 10.9593 68.1792 13.4269V40.2345C68.1792 42.7021 66.195 44.7024 63.7478 44.7024H30.5124C28.065 44.7024 26.0811 42.7021 26.0811 40.2345V13.4269Z" fill="url(#paint1_linear_5891_22394)"/>
<path fill-rule="evenodd" clip-rule="evenodd" d="M57.0921 15.6607C57.0921 14.427 56.1001 13.4268 54.8764 13.4268C53.6528 13.4268 52.6607 14.427 52.6607 15.6607V20.1286H48.2294C47.0057 20.1286 46.0137 21.1289 46.0137 22.3626C46.0137 23.5964 47.0057 24.5966 48.2294 24.5966H52.6607V29.0645C52.6607 30.2983 53.6528 31.2985 54.8764 31.2985C56.1001 31.2985 57.0921 30.2983 57.0921 29.0645V24.5966H61.5235C62.7471 24.5966 63.7392 23.5964 63.7392 22.3626C63.7392 21.1289 62.7471 20.1286 61.5235 20.1286H57.0921V15.6607Z" fill="url(#paint2_linear_5891_22394)"/>
<path d="M16.7874 45.3375C21.3217 41.1172 25.3879 38.5586 31.8947 38.5586C38.4014 38.5586 42.4676 41.1172 47.0019 45.3375C49.0161 47.2123 49.328 50.2627 47.9374 52.5013C47.4365 53.3078 46.476 53.6379 45.5295 53.6379H18.2598C17.3133 53.6379 16.3528 53.3078 15.8519 52.5013C14.4613 50.2627 14.7732 47.2123 16.7874 45.3375Z" fill="url(#paint3_linear_5891_22394)"/>
<path d="M31.8973 34.6495C36.6391 34.6495 40.4831 30.8988 40.4831 26.2721C40.4831 21.6454 36.6391 17.8948 31.8973 17.8948C27.1555 17.8948 23.3115 21.6454 23.3115 26.2721C23.3115 30.8988 27.1555 34.6495 31.8973 34.6495Z" fill="url(#paint4_linear_5891_22394)"/>
<defs>
<linearGradient id="paint0_linear_5891_22394" x1="61.999" y1="31.3735" x2="1.5587" y2="42.1965" gradientUnits="userSpaceOnUse">
<stop stop-color="#FFE7CF"/>
<stop offset="0.310086" stop-color="#FFF9F3"/>
<stop offset="1" stop-color="#FFF0E2"/>
</linearGradient>
<linearGradient id="paint1_linear_5891_22394" x1="43.568" y1="6.33447" x2="62.0496" y2="31.5255" gradientUnits="userSpaceOnUse">
<stop stop-color="#FFC995"/>
<stop offset="0.310086" stop-color="#FCDFC3"/>
<stop offset="1" stop-color="#FFE0C1"/>
</linearGradient>
<linearGradient id="paint2_linear_5891_22394" x1="54.8764" y1="13.4268" x2="54.8764" y2="31.2985" gradientUnits="userSpaceOnUse">
<stop offset="0.0239996" stop-color="#FFA73D"/>
<stop offset="0.599" stop-color="#FF8B00"/>
<stop offset="1" stop-color="#EE8200"/>
</linearGradient>
<linearGradient id="paint3_linear_5891_22394" x1="31.8947" y1="38.5586" x2="31.8947" y2="53.6379" gradientUnits="userSpaceOnUse">
<stop offset="0.0239996" stop-color="#FFA73D"/>
<stop offset="0.599" stop-color="#FF8B00"/>
<stop offset="1" stop-color="#EE8200"/>
</linearGradient>
<linearGradient id="paint4_linear_5891_22394" x1="31.8973" y1="17.8948" x2="31.8973" y2="34.6495" gradientUnits="userSpaceOnUse">
<stop offset="0.0239996" stop-color="#FFA73D"/>
<stop offset="0.599" stop-color="#FF8B00"/>
<stop offset="1" stop-color="#EE8200"/>
</linearGradient>
</defs>
</svg>
