<svg width="44" height="24" viewBox="0 0 44 24" fill="none" xmlns="http://www.w3.org/2000/svg">
<g id="Group 3889">
<path id="Vector" d="M21.6627 4.82324H24.9467C25.0951 6.86951 25.2429 8.90534 25.3919 10.9537H27.4847C27.9066 15.0154 28.3267 19.0651 28.7486 23.1268C26.4969 23.1613 24.2599 23.1953 22.0027 23.2298C21.8894 17.092 21.776 10.9605 21.6621 4.82377L21.6627 4.82324Z" fill="url(#paint0_linear_5464_21210)"/>
<path id="Vector_2" d="M7.89514 10.9751H10.1043C10.6439 7.51051 11.1828 4.05217 11.7198 0.600098H13.0021C12.5414 4.06418 12.0832 7.5126 11.6231 10.9735H13.7818C13.4154 14.6147 13.0495 18.2439 12.6825 21.8867C10.4 21.9175 8.11995 21.9478 5.81836 21.9786C6.51124 18.3082 7.20165 14.6482 7.89453 10.9751H7.89514Z" fill="url(#paint1_linear_5464_21210)"/>
<path id="Vector_3" d="M20.6466 19.9437C18.5027 19.9678 16.3465 19.9923 14.1699 20.0169C14.4224 17.0015 14.6743 13.993 14.9275 10.9745H17.0708C17.2137 8.22196 17.3553 5.47984 17.4976 2.73511H20.6466V19.9437Z" fill="url(#paint2_linear_5464_21210)"/>
<path id="Vector_4" d="M44.0005 19.295C42.0444 19.3159 40.0982 19.3368 38.139 19.3582C37.2491 16.5597 36.3597 13.7643 35.4648 10.9495H37.4788C36.8611 9.17491 36.2513 7.42171 35.6373 5.65649C35.6976 5.65649 35.7451 5.65649 35.7931 5.65649C36.6775 5.66224 37.562 5.6706 38.4464 5.67164C38.5683 5.67164 38.6213 5.70038 38.6607 5.80068C40.2238 9.75583 41.7913 13.7094 43.3575 17.6635C43.5577 18.1687 43.7578 18.6744 43.958 19.1795C43.9721 19.2151 43.9838 19.2506 43.9999 19.295H44.0005Z" fill="url(#paint3_linear_5464_21210)"/>
<path id="Vector_5" d="M35.7375 18.5957C33.6588 18.6171 31.5962 18.638 29.52 18.6594C29.2115 16.0923 28.9035 13.5325 28.5938 10.9581H30.6718C30.3435 8.78593 30.0171 6.62891 29.6907 4.46875H30.9976C31.3727 6.6357 31.7459 8.79167 32.1197 10.9534H34.1799C34.6991 13.5001 35.2164 16.0406 35.7375 18.5957Z" fill="url(#paint4_linear_5464_21210)"/>
<path id="Vector_6" d="M0.000616023 15.9251C0.867791 12.8873 1.73004 9.86727 2.59413 6.84253H5.56273C5.23446 8.22169 4.90865 9.59092 4.57915 10.9737H6.73908C6.40034 12.6172 6.06468 14.2482 5.72779 15.8844C3.81976 15.8979 1.92343 15.9115 0 15.9251H0.000616023Z" fill="url(#paint5_linear_5464_21210)"/>
</g>
<defs>
<linearGradient id="paint0_linear_5464_21210" x1="28.7486" y1="14.1374" x2="21.6526" y2="14.6267" gradientUnits="userSpaceOnUse">
<stop stop-color="#FFC995"/>
<stop offset="1" stop-color="#FFC883"/>
</linearGradient>
<linearGradient id="paint1_linear_5464_21210" x1="13.7818" y1="11.4182" x2="-21.3189" y2="16.846" gradientUnits="userSpaceOnUse">
<stop stop-color="#FFC995"/>
<stop offset="0.310086" stop-color="#FCDFC3"/>
<stop offset="1" stop-color="#FFE0C1"/>
</linearGradient>
<linearGradient id="paint2_linear_5464_21210" x1="20.6466" y1="11.4802" x2="14.1596" y2="11.9155" gradientUnits="userSpaceOnUse">
<stop stop-color="#FFC995"/>
<stop offset="1" stop-color="#FFC883"/>
</linearGradient>
<linearGradient id="paint3_linear_5464_21210" x1="44.0005" y1="12.5899" x2="35.5183" y2="13.5362" gradientUnits="userSpaceOnUse">
<stop stop-color="#FFC995"/>
<stop offset="1" stop-color="#FFC883"/>
</linearGradient>
<linearGradient id="paint4_linear_5464_21210" x1="35.7375" y1="11.6496" x2="42.6207" y2="22.8542" gradientUnits="userSpaceOnUse">
<stop stop-color="#FFC995"/>
<stop offset="0.310086" stop-color="#FCDFC3"/>
<stop offset="1" stop-color="#FFE0C1"/>
</linearGradient>
<linearGradient id="paint5_linear_5464_21210" x1="6.73908" y1="11.4386" x2="0.076486" y2="12.3238" gradientUnits="userSpaceOnUse">
<stop stop-color="#FFC995"/>
<stop offset="1" stop-color="#FFC883"/>
</linearGradient>
</defs>
</svg>
