<svg width="15" height="13" viewBox="0 0 15 13" fill="none" xmlns="http://www.w3.org/2000/svg">
<g id="Group">
<g id="Group_2">
<path id="Vector" d="M0 0.722218C0 0.323355 0.31604 0 0.70588 0H13.4117C13.8016 0 14.1176 0.323355 14.1176 0.722218V2.16665C14.1176 2.56552 13.8016 2.88887 13.4117 2.88887H0.70588C0.31604 2.88887 0 2.56552 0 2.16665V0.722218Z" fill="white"/>
</g>
<g id="Group_3">
<path id="Vector_2" d="M0 3.97232C0 3.77287 0.158011 3.61121 0.35294 3.61121H12.3529C12.5478 3.61121 12.7058 3.77287 12.7058 3.97232V5.41675C12.7058 5.61619 12.5478 5.77786 12.3529 5.77786H0.35294C0.158011 5.77786 0 5.61619 0 5.41675V3.97232Z" fill="white"/>
</g>
<g id="Group_4">
<path id="Vector_3" d="M0 6.86123C0 6.66179 0.158011 6.50012 0.35294 6.50012H6.70586C6.90079 6.50012 7.0588 6.66179 7.0588 6.86123V7.58345C7.0588 7.78289 6.90079 7.94456 6.70586 7.94456H0.35294C0.158011 7.94456 0 7.78289 0 7.58345V6.86123Z" fill="white"/>
</g>
<g id="Group_5">
<path id="Vector_4" d="M9.12193 11.6934C9.95022 13.0709 11.4621 13.0642 12.3313 12.9582C14.0695 12.7461 15.2871 11.7456 14.9426 8.38015C14.8468 7.44531 14.1472 7.05745 13.3259 7.63094C13.013 6.72263 11.5 6.98617 11.5877 7.84309L11.3963 5.97342C11.3245 5.27229 10.9472 4.60844 10.1664 4.70374C9.38554 4.79905 9.39297 5.74465 9.48339 6.62838L9.82355 9.95143L9.07604 9.09616C8.83485 8.88897 8.20292 8.30353 7.70058 8.55414C7.19826 8.80475 7.12054 9.33484 7.38567 9.77571C7.6508 10.2166 8.59167 10.8117 9.12193 11.6934Z" fill="url(#paint0_linear_5633_14024)"/>
</g>
</g>
<defs>
<linearGradient id="paint0_linear_5633_14024" x1="15.001" y1="8.89738" x2="7.40191" y2="10.1696" gradientUnits="userSpaceOnUse">
<stop stop-color="#FFC995"/>
<stop offset="0.310086" stop-color="#FCDFC3"/>
<stop offset="1" stop-color="#FFE0C1"/>
</linearGradient>
</defs>
</svg>
