<svg width="25" height="24" viewBox="0 0 25 24" fill="none" xmlns="http://www.w3.org/2000/svg">
<g id="Outline/write">
<path id="Vector" fill-rule="evenodd" clip-rule="evenodd" d="M17.1839 4.32446C16.419 3.55949 15.1787 3.55949 14.4137 4.32446L6.62256 12.1156C6.2552 12.483 6.04883 12.9812 6.04883 13.5007V14.7912C6.04883 15.873 6.92583 16.75 8.00766 16.75H9.29811C9.81763 16.75 10.3159 16.5436 10.6832 16.1763L18.4744 8.38512C19.2394 7.62015 19.2394 6.37988 18.4744 5.61491L17.1839 4.32446ZM15.4744 5.38512C15.6536 5.20594 15.9441 5.20594 16.1233 5.38512L17.4137 6.67557C17.5929 6.85476 17.5929 7.14528 17.4137 7.32446L9.62256 15.1156C9.53651 15.2017 9.4198 15.25 9.29811 15.25H8.00766C7.75425 15.25 7.54883 15.0446 7.54883 14.7912V13.5007C7.54883 13.379 7.59717 13.2623 7.68322 13.1763L15.4744 5.38512ZM4.79883 19.25C4.38461 19.25 4.04883 19.5858 4.04883 20C4.04883 20.4142 4.38461 20.75 4.79883 20.75H20.7988C21.213 20.75 21.5488 20.4142 21.5488 20C21.5488 19.5858 21.213 19.25 20.7988 19.25H4.79883Z" fill="black"/>
</g>
</svg>
