<svg width="15" height="15" viewBox="0 0 15 15" fill="none" xmlns="http://www.w3.org/2000/svg">
<g id="Outline/bell">
<path id="Vector" fill-rule="evenodd" clip-rule="evenodd" d="M6.6996 3.85355C6.89487 3.65829 6.89487 3.34171 6.6996 3.14645C6.50434 2.95118 6.18776 2.95118 5.9925 3.14645L3.35355 5.78539L3 6.13894L3.35355 6.4925L5.9925 9.13144C6.18776 9.3267 6.50434 9.3267 6.6996 9.13144C6.89487 8.93618 6.89487 8.6196 6.6996 8.42434L4.91432 6.63905H8.10564C9.28694 6.63905 10.2446 7.59668 10.2446 8.77799C10.2446 9.9593 9.28694 10.9169 8.10563 10.9169H4.58704C4.3109 10.9169 4.08704 11.1408 4.08704 11.4169C4.08704 11.6931 4.3109 11.9169 4.58704 11.9169H8.10563C9.83923 11.9169 11.2446 10.5116 11.2446 8.77799C11.2446 7.0444 9.83923 5.63905 8.10564 5.63905H4.91411L6.6996 3.85355Z" fill="white"/>
</g>
</svg>
