<svg width="20" height="20" viewBox="0 0 20 20" fill="none" xmlns="http://www.w3.org/2000/svg">
<g id="Iconset/bar-chart-2">
<path id="Vector" fill-rule="evenodd" clip-rule="evenodd" d="M9.24996 16.6668C9.24996 17.0813 9.58597 17.4173 10.0005 17.4173C10.4149 17.4173 10.751 17.0813 10.751 16.6668L10.751 3.33351C10.751 2.91902 10.4149 2.58301 10.0005 2.58301C9.58597 2.58301 9.24996 2.91902 9.24996 3.33351L9.24996 16.6668ZM15.0004 17.4173C14.5859 17.4173 14.2499 17.0813 14.2499 16.6668V6.66684C14.2499 6.25235 14.5859 5.91634 15.0004 5.91634C15.4149 5.91634 15.7509 6.25235 15.7509 6.66684L15.7509 16.6668C15.7509 17.0813 15.4149 17.4173 15.0004 17.4173ZM5.0005 17.4173C4.58601 17.4173 4.25 17.0813 4.25 16.6668V11.6668C4.25 11.2524 4.58601 10.9163 5.0005 10.9163C5.41499 10.9163 5.751 11.2523 5.751 11.6668L5.751 16.6668C5.751 17.0813 5.41499 17.4173 5.0005 17.4173Z" fill="#FF8B00"/>
</g>
</svg>
