<svg width="16" height="16" viewBox="0 0 16 16" fill="none" xmlns="http://www.w3.org/2000/svg">
    <g id="Frame 1948757527">
        <path id="Vector" d="M16 15.9985C15.9711 15.9985 15.9423 15.9985 15.9134 15.9985C11.1829 15.9985 6.45239 15.9977 1.72187 16C1.33614 16 0.985731 15.8901 0.679642 15.6312C0.25375 15.2711 0.0259147 14.7888 0.00121528 14.191C-0.000400575 14.1521 6.10264e-05 14.1132 6.10264e-05 14.0746C6.10264e-05 9.4132 6.10264e-05 4.75177 6.10264e-05 0.0903358L6.10264e-05 0L14.8941 0V0.973876L0.877931 0.973876V1.0462C0.877931 5.39905 0.879085 9.75215 0.876546 14.105C0.876315 14.6079 1.22972 15.0068 1.65239 15.0189C2.08982 15.0315 2.46608 14.6367 2.47278 14.1495C2.47324 14.121 2.47301 14.0924 2.47301 14.0638C2.47301 10.3871 2.47301 6.71008 2.47301 3.03333V2.94428L15.9998 2.94428L16 15.9985ZM3.38112 15.0163C3.40397 15.0176 3.42197 15.0192 3.43998 15.0192C4.49513 15.0192 5.55028 15.0189 6.60567 15.0207C6.65784 15.0207 6.66868 15.0024 6.66868 14.9481C6.66753 13.4428 6.66776 11.9375 6.66753 10.4321C6.66753 10.4108 6.66545 10.3891 6.66407 10.3624H5.8012L5.8012 3.92614H4.24283L4.24283 10.3639H3.38112L3.38112 15.0163ZM11.8166 10.3644V15.0138H15.0944V10.3616H14.2336V3.92588H12.6732V10.3644H11.8166ZM10.0193 10.3619V3.92536H8.45928V10.3655H7.60011V15.0138H10.8787V10.3621L10.0193 10.3619Z" fill="url(#paint0_linear_3585_13297)"/>
        <path id="Vector_2" d="M1.81102 13.0552H1.41992L1.41992 2.36423H13.8941V2.79959H1.81102L1.81102 13.0552Z" fill="url(#paint1_linear_3585_13297)"/>
    </g>
    <defs>
        <linearGradient id="paint0_linear_3585_13297" x1="0" y1="8" x2="16" y2="8" gradientUnits="userSpaceOnUse">
            <stop stop-color="#FFB05A"/>
            <stop offset="0.705" stop-color="#FF8B06"/>
            <stop offset="1" stop-color="#FF8B00"/>
        </linearGradient>
        <linearGradient id="paint1_linear_3585_13297" x1="1.41992" y1="7.7097" x2="13.8941" y2="7.7097" gradientUnits="userSpaceOnUse">
            <stop stop-color="#FFB05A"/>
            <stop offset="0.705" stop-color="#FF8B06"/>
            <stop offset="1" stop-color="#FF8B00"/>
        </linearGradient>
    </defs>
</svg>
