<svg width="18" height="18" viewBox="0 0 18 18" fill="none" xmlns="http://www.w3.org/2000/svg">
<g id="Outline/clock">
<path id="Vector" fill-rule="evenodd" clip-rule="evenodd" d="M2.28575 8.99944C2.28575 5.29103 5.29201 2.28477 9.00041 2.28477C12.7088 2.28477 15.7151 5.29103 15.7151 8.99944C15.7151 12.7078 12.7088 15.7141 9.00041 15.7141C5.29201 15.7141 2.28575 12.7078 2.28575 8.99944ZM9.00041 0.923828C4.54038 0.923828 0.924805 4.5394 0.924805 8.99944C0.924805 13.4595 4.54038 17.075 9.00041 17.075C13.4604 17.075 17.076 13.4595 17.076 8.99944C17.076 4.5394 13.4604 0.923828 9.00041 0.923828ZM8.942 4.56289C8.942 4.18708 8.63734 3.88242 8.26153 3.88242C7.88571 3.88242 7.58106 4.18708 7.58106 4.56289V9.73949V10.42H8.26153H11.9591C12.3349 10.42 12.6396 10.1153 12.6396 9.73949C12.6396 9.36368 12.3349 9.05902 11.9591 9.05902H8.942V4.56289Z" fill="#FF8B00"/>
</g>
</svg>
