<svg width="20" height="20" viewBox="0 0 20 20" fill="none" xmlns="http://www.w3.org/2000/svg">
<g id="Outline/book-open">
<path id="Vector" fill-rule="evenodd" clip-rule="evenodd" d="M6.85836 5C5.21089 5 4.01601 5.87947 3.6132 6.22009C3.42648 6.37798 3.33984 6.60396 3.33984 6.82236V14.3297C3.33984 14.7142 3.59316 14.9899 3.86097 15.123C4.1275 15.2556 4.48451 15.2885 4.79122 15.1156C5.30149 14.8278 6.01336 14.5502 6.85836 14.5502C8.03953 14.5502 8.95947 15.0932 9.42501 15.4402C9.49367 15.4914 9.56835 15.5321 9.64657 15.5624C9.70019 15.7052 9.83804 15.8069 9.99964 15.8069C10.1612 15.8069 10.2989 15.7053 10.3526 15.5626C10.4311 15.5323 10.5059 15.4915 10.5748 15.4402C11.0403 15.0932 11.9602 14.5502 13.1414 14.5502C13.9864 14.5502 14.6983 14.8278 15.2085 15.1156C15.5153 15.2885 15.8723 15.2556 16.1388 15.123C16.4066 14.9899 16.6599 14.7142 16.6599 14.3297V6.82236C16.6599 6.60396 16.5733 6.37798 16.3866 6.22009C15.9838 5.87947 14.7889 5 13.1414 5C11.7318 5 10.6545 5.64406 10.1241 6.03948C10.056 6.09024 9.94375 6.09024 9.87565 6.03948C9.34527 5.64406 8.26794 5 6.85836 5ZM10.3766 14.6587C10.9607 14.2736 11.9279 13.7963 13.1414 13.7963C14.1526 13.7963 14.9923 14.128 15.5789 14.4588C15.6258 14.4853 15.7134 14.4925 15.8031 14.4479C15.8915 14.404 15.906 14.3512 15.906 14.3297V6.82236C15.906 6.81104 15.9037 6.80349 15.902 6.79966C15.9012 6.7978 15.9006 6.79681 15.9003 6.79642L15.8997 6.79581C15.5499 6.49995 14.5257 5.75397 13.1414 5.75397C11.9602 5.75397 11.0403 6.29687 10.5748 6.64395C10.513 6.69001 10.4463 6.72758 10.3766 6.75668V14.6587ZM9.62266 6.75647C9.55312 6.72741 9.48664 6.6899 9.42501 6.64395C8.95947 6.29687 8.03953 5.75397 6.85836 5.75397C5.47406 5.75397 4.44992 6.49995 4.10003 6.79581L4.09949 6.79642C4.0992 6.79681 4.09853 6.7978 4.09772 6.79966C4.09605 6.80349 4.09381 6.81104 4.09381 6.82236V14.3297C4.09381 14.3512 4.10829 14.404 4.19667 14.4479C4.28634 14.4925 4.37394 14.4853 4.42086 14.4588C5.00749 14.128 5.84715 13.7963 6.85836 13.7963C8.07152 13.7963 9.03858 14.2734 9.62266 14.6584V6.75647Z" fill="#FF8B00"/>
</g>
</svg>
