<svg width="20" height="21" viewBox="0 0 20 21" fill="none" xmlns="http://www.w3.org/2000/svg">
<g id="Iconset/download">
<path id="Vector" fill-rule="evenodd" clip-rule="evenodd" d="M9.2505 3.72617L9.2505 11.9155L6.36416 9.02917C6.07127 8.73628 5.5964 8.73628 5.3035 9.02917C5.01061 9.32206 5.01061 9.79694 5.3035 10.0898L9.46957 14.2559L9.47077 14.2571L10.0005 14.7868L10.5308 14.2565L14.6975 10.0898C14.9904 9.79694 14.9904 9.32206 14.6975 9.02917C14.4046 8.73628 13.9297 8.73628 13.6368 9.02917L10.7505 11.9155L10.7505 3.72617C10.7505 3.31195 10.4147 2.97617 10.0005 2.97617C9.58628 2.97617 9.2505 3.31195 9.2505 3.72617ZM3.33383 16.3095C2.91962 16.3095 2.58383 16.6453 2.58383 17.0595C2.58383 17.4737 2.91962 17.8095 3.33383 17.8095H16.6672C17.0814 17.8095 17.4172 17.4737 17.4172 17.0595C17.4172 16.6453 17.0814 16.3095 16.6672 16.3095H3.33383Z" fill="white"/>
</g>
</svg>
