<svg width="16" height="16" viewBox="0 0 16 16" fill="none" xmlns="http://www.w3.org/2000/svg">
    <g id="Frame 1948757564">
        <path id="Vector" fill-rule="evenodd" clip-rule="evenodd" d="M2.50904 3.42708C2.50904 2.19476 3.50803 1.19577 4.74035 1.19577H11.0842C12.3165 1.19577 13.3155 2.19476 13.3155 3.42708V5.38447C13.2931 5.38373 13.2706 5.38336 13.2481 5.38336H10.1618H9.56393V5.98124V11.3647V11.9626H10.1618H13.2481C13.2711 11.9626 13.2941 11.9622 13.317 11.9615V13.3146C13.317 13.7657 12.9514 14.1313 12.5003 14.1313H9.99081C9.86602 13.3679 9.20337 12.7853 8.40465 12.7853H7.42289C6.53521 12.7853 5.8156 13.5049 5.8156 14.3926C5.8156 15.2803 6.53521 15.9999 7.42289 15.9999H8.40465C8.94378 15.9999 9.42091 15.7344 9.71248 15.3271H12.5003C13.6118 15.3271 14.5128 14.4261 14.5128 13.3146V11.5156C14.9689 11.1467 15.2605 10.5825 15.2605 9.95013V7.39584C15.2605 6.76281 14.9683 6.19804 14.5113 5.82912V3.42708C14.5113 1.53436 12.9769 0 11.0842 0H4.74035C2.84762 0 1.31327 1.53436 1.31327 3.42708V5.82947C0.856547 6.1984 0.564453 6.76301 0.564453 7.39584V9.95013C0.564453 11.0616 1.46547 11.9626 2.57694 11.9626H5.66318H6.26107V11.3647V5.98124V5.38336H5.66318H2.57694C2.55421 5.38336 2.53158 5.38374 2.50904 5.38448V3.42708ZM2.23422 6.6543H2.50904V6.58191C2.53143 6.58007 2.55407 6.57913 2.57694 6.57913H5.0653V10.7668H2.57694C2.12588 10.7668 1.76022 10.4012 1.76022 9.95013V7.39584C1.76022 7.06718 1.95436 6.78386 2.23422 6.6543ZM13.3155 6.58187V6.6543H13.5908C13.8706 6.78386 14.0648 7.06718 14.0648 7.39584V9.95013C14.0648 10.2787 13.8707 10.562 13.5909 10.6916H13.317V10.764C13.2943 10.7659 13.2713 10.7668 13.2481 10.7668H10.7597V6.57913H13.2481C13.2708 6.57913 13.2933 6.58006 13.3155 6.58187ZM8.81616 14.3926C8.81616 14.6199 8.63192 14.8041 8.40465 14.8041H7.42289C7.19561 14.8041 7.01137 14.6199 7.01137 14.3926C7.01137 14.1653 7.19561 13.9811 7.42289 13.9811H8.40465C8.63192 13.9811 8.81616 14.1653 8.81616 14.3926Z" fill="#FF8B00"/>
    </g>
</svg>
