<svg width="18" height="17" viewBox="0 0 18 17" fill="none" xmlns="http://www.w3.org/2000/svg">
    <g id="Outline/write">
        <path id="Vector" fill-rule="evenodd" clip-rule="evenodd" d="M12.89 1.33946C12.3116 0.761137 11.374 0.761138 10.7957 1.33946L3.24955 8.88558C2.97183 9.16331 2.81581 9.53998 2.81581 9.93273V11.3879C2.81581 12.2058 3.47883 12.8688 4.2967 12.8688H5.75185C6.1446 12.8688 6.52128 12.7127 6.799 12.435L14.3451 4.88891C14.9234 4.31058 14.9234 3.37293 14.3451 2.79461L12.89 1.33946ZM11.5028 2.04657C11.6906 1.85877 11.9951 1.85877 12.1829 2.04657L13.638 3.50172C13.8258 3.68952 13.8258 3.994 13.638 4.1818L6.09189 11.7279C6.0017 11.8181 5.87939 11.8688 5.75185 11.8688H4.2967C4.03111 11.8688 3.81581 11.6535 3.81581 11.3879V9.93273C3.81581 9.80519 3.86647 9.68288 3.95666 9.59269L11.5028 2.04657ZM1.42037 15.6584C1.14422 15.6584 0.920367 15.8823 0.920367 16.1584C0.920367 16.4345 1.14422 16.6584 1.42037 16.6584H16.5795C16.8556 16.6584 17.0795 16.4345 17.0795 16.1584C17.0795 15.8823 16.8556 15.6584 16.5795 15.6584H1.42037Z" fill="#FF8B00"/>
    </g>
</svg>
