<svg width="60" height="56" viewBox="0 0 60 56" fill="none" xmlns="http://www.w3.org/2000/svg">
    <rect width="60" height="56" rx="28" fill="white"/>
    <path d="M29.2994 19.666H32.3767C32.5157 21.9266 32.6543 24.1757 32.7939 26.4386H34.755C35.1503 30.9258 35.5439 35.3997 35.9393 39.8869C33.8293 39.925 31.7332 39.9625 29.618 40.0006C29.5118 33.2199 29.4056 26.4461 29.2988 19.6666L29.2994 19.666Z" fill="url(#paint0_linear_7363_22393)"/>
    <path d="M16.4012 26.4618H18.4713C18.9769 22.6343 19.4819 18.8137 19.9851 15H21.1867C20.755 18.8269 20.3256 22.6366 19.8945 26.4601H21.9174C21.574 30.4826 21.2312 34.492 20.8872 38.5163C18.7483 38.5503 16.6118 38.5838 14.4551 38.6179C15.1043 34.5629 15.7513 30.5196 16.4006 26.4618H16.4012Z" fill="url(#paint1_linear_7363_22393)"/>
    <path d="M28.3464 36.3706C26.3374 36.3971 24.3169 36.4243 22.2773 36.4514C22.514 33.1202 22.75 29.7965 22.9872 26.4619H24.9956C25.1295 23.421 25.2623 20.3916 25.3956 17.3594H28.3464V36.3706Z" fill="url(#paint2_linear_7363_22393)"/>
    <path d="M50.2309 35.653C48.3979 35.6761 46.5742 35.6992 44.7383 35.7229C43.9044 32.6312 43.071 29.543 42.2324 26.4334H44.1196C43.5408 24.4729 42.9694 22.5361 42.394 20.5859C42.4506 20.5859 42.495 20.5859 42.54 20.5859C43.3688 20.5923 44.1975 20.6015 45.0263 20.6027C45.1406 20.6027 45.1902 20.6344 45.2271 20.7452C46.6919 25.1147 48.1607 29.4824 49.6283 33.8507C49.8159 34.4088 50.0035 34.9674 50.191 35.5255C50.2043 35.5647 50.2153 35.604 50.2303 35.653H50.2309Z" fill="url(#paint3_linear_7363_22393)"/>
    <path d="M42.4871 34.8802C40.5393 34.9038 38.6065 34.9269 36.661 34.9506C36.3718 32.1146 36.0833 29.2866 35.793 26.4425H37.7402C37.4326 24.0428 37.1267 21.6599 36.8208 19.2734H38.0455C38.397 21.6674 38.7467 24.0492 39.097 26.4373H41.0275C41.5141 29.2508 41.9988 32.0574 42.4871 34.8802Z" fill="url(#paint4_linear_7363_22393)"/>
    <path d="M9.00058 31.9305C9.81318 28.5744 10.6212 25.2381 11.4309 21.8965H14.2126C13.905 23.4201 13.5997 24.9328 13.291 26.4604H15.3149C14.9975 28.2761 14.683 30.0779 14.3673 31.8854C12.5794 31.9004 10.8024 31.9154 9 31.9305H9.00058Z" fill="url(#paint5_linear_7363_22393)"/>
    <defs>
        <linearGradient id="paint0_linear_7363_22393" x1="32.6191" y1="19.666" x2="32.6191" y2="40.0006" gradientUnits="userSpaceOnUse">
            <stop offset="0.0239996" stop-color="#FFA73D"/>
            <stop offset="0.599" stop-color="#FF8B00"/>
            <stop offset="1" stop-color="#EE8200"/>
        </linearGradient>
        <linearGradient id="paint1_linear_7363_22393" x1="18.1862" y1="15" x2="18.1862" y2="38.6179" gradientUnits="userSpaceOnUse">
            <stop offset="0.0239996" stop-color="#FFA73D"/>
            <stop offset="0.599" stop-color="#FF8B00"/>
            <stop offset="1" stop-color="#EE8200"/>
        </linearGradient>
        <linearGradient id="paint2_linear_7363_22393" x1="25.3119" y1="17.3594" x2="25.3119" y2="36.4514" gradientUnits="userSpaceOnUse">
            <stop offset="0.0239996" stop-color="#FFA73D"/>
            <stop offset="0.599" stop-color="#FF8B00"/>
            <stop offset="1" stop-color="#EE8200"/>
        </linearGradient>
        <linearGradient id="paint3_linear_7363_22393" x1="46.2316" y1="20.5859" x2="46.2316" y2="35.7229" gradientUnits="userSpaceOnUse">
            <stop offset="0.0239996" stop-color="#FFA73D"/>
            <stop offset="0.599" stop-color="#FF8B00"/>
            <stop offset="1" stop-color="#EE8200"/>
        </linearGradient>
        <linearGradient id="paint4_linear_7363_22393" x1="39.14" y1="19.2734" x2="39.14" y2="34.9506" gradientUnits="userSpaceOnUse">
            <stop offset="0.0239996" stop-color="#FFA73D"/>
            <stop offset="0.599" stop-color="#FF8B00"/>
            <stop offset="1" stop-color="#EE8200"/>
        </linearGradient>
        <linearGradient id="paint5_linear_7363_22393" x1="12.1575" y1="21.8965" x2="12.1575" y2="31.9305" gradientUnits="userSpaceOnUse">
            <stop offset="0.0239996" stop-color="#FFA73D"/>
            <stop offset="0.599" stop-color="#FF8B00"/>
            <stop offset="1" stop-color="#EE8200"/>
        </linearGradient>
    </defs>
</svg>
