<svg width="21" height="21" viewBox="0 0 21 21" fill="none" xmlns="http://www.w3.org/2000/svg">
<path d="M19.5119 12.595V11.7397C19.5119 11.7033 19.4823 11.6736 19.4459 11.6736H15.2115C15.1362 11.6736 15.1195 11.568 15.1911 11.5447L19.2195 10.2357C19.2542 10.2246 19.2732 10.1872 19.262 10.1524L18.9975 9.33887C18.9864 9.30414 18.949 9.2852 18.9142 9.29637L14.887 10.6049C14.8154 10.6282 14.7668 10.5327 14.8278 10.4885L18.2547 7.99882C18.2843 7.97745 18.2908 7.93592 18.2692 7.90653L17.7665 7.21441C17.7452 7.18478 17.7036 7.17822 17.6742 7.19984L14.2486 9.68882C14.1876 9.73302 14.1119 9.65749 14.1563 9.59654L16.646 6.16966C16.6674 6.14003 16.6608 6.09875 16.6314 6.07738L15.9393 5.57468C15.9097 5.5533 15.8684 5.55986 15.847 5.58925L13.358 9.01491C13.3138 9.07586 13.2184 9.02729 13.2417 8.95565L14.5507 4.92723C14.5619 4.89251 14.5429 4.85511 14.5082 4.84394L13.6946 4.57971C13.6599 4.56854 13.6225 4.58748 13.6113 4.62221L12.3029 8.64917C12.2795 8.72082 12.1739 8.70406 12.1739 8.62878V4.39296C12.1739 4.35653 12.1443 4.3269 12.1078 4.3269H11.2523C11.2159 4.3269 11.1862 4.35653 11.1862 4.39296L11.177 9.53898C11.177 9.58002 11.2137 9.61038 11.2542 9.60358C11.3941 9.58027 11.5379 9.56788 11.6843 9.56788C12.8046 9.56788 13.7595 10.2753 14.1272 11.2676L14.1876 11.4539C14.2394 11.6341 14.2724 11.822 14.2838 12.0158V12.0217V12.3242V12.3296C14.2743 12.4865 14.251 12.6395 14.2151 12.7876C14.2146 12.7898 14.2141 12.7917 14.2134 12.7939L14.0946 13.1597C14.0939 13.1618 14.0932 13.1638 14.0922 13.166C14.0412 13.2896 13.9814 13.4086 13.9127 13.5217C13.9115 13.5237 13.9101 13.5259 13.9088 13.5278L13.6672 13.8605C13.6657 13.8625 13.6645 13.8642 13.6628 13.8659C13.5752 13.9681 13.48 14.0635 13.3777 14.1512C13.376 14.1527 13.3741 14.1541 13.3724 14.1556L13.038 14.3984C13.036 14.3999 13.0341 14.4011 13.0319 14.4023C12.9199 14.4701 12.8024 14.5293 12.6803 14.5799C12.6781 14.5808 12.6769 14.5813 12.6749 14.5818C12.6443 14.5918 12.3315 14.6935 12.3019 14.703C12.2999 14.7037 12.2987 14.7039 12.2965 14.7044C12.1503 14.7396 11.9995 14.7627 11.8451 14.7722H11.8397H11.5303H11.525C11.4335 14.7664 11.3429 14.7564 11.254 14.7416C11.2134 14.7348 11.1768 14.7651 11.1768 14.8062V15.2878V19.934C11.1768 19.9704 11.2064 20.0001 11.2428 20.0001H12.0984C12.1348 20.0001 12.1644 19.9704 12.1644 19.934V15.6996C12.1644 15.6244 12.2701 15.6076 12.2934 15.6792L13.6024 19.7077C13.6135 19.7424 13.6509 19.7613 13.6857 19.7502L14.4992 19.4857C14.5339 19.4745 14.5529 19.4371 14.5417 19.4024L13.2332 15.3754C13.2099 15.3038 13.3054 15.2552 13.3495 15.3162L15.8393 18.7431C15.8606 18.7727 15.9022 18.7792 15.9315 18.7576L16.6237 18.2549C16.6533 18.2336 16.6599 18.192 16.6382 18.1626L14.1493 14.737C14.1051 14.676 14.1806 14.6002 14.2415 14.6447L17.6684 17.1344C17.698 17.1558 17.7393 17.1492 17.7607 17.1198L18.2634 16.4277C18.2848 16.3981 18.2782 16.3568 18.2488 16.3354L14.8232 13.8464C14.7622 13.8022 14.8108 13.7068 14.8824 13.7301L18.9108 15.0391C18.9456 15.0503 18.983 15.0313 18.9941 14.9966L19.2584 14.183C19.2695 14.1483 19.2506 14.1109 19.2159 14.0997L15.1889 12.7912C15.1173 12.7679 15.134 12.6623 15.2093 12.6623H19.4451C19.4815 12.6623 19.5112 12.6327 19.5112 12.5962L19.5119 12.595Z" fill="#FF8B00"/>
<path d="M1.74121 8.40527V9.26059C1.74121 9.29702 1.77084 9.32665 1.80727 9.32665H6.04162C6.11691 9.32665 6.13367 9.43229 6.06202 9.4556L2.0336 10.7646C1.99888 10.7757 1.97993 10.8131 1.9911 10.8479L2.25557 11.6614C2.26674 11.6961 2.30414 11.7151 2.33887 11.7039L6.36607 10.3954C6.43772 10.3721 6.48629 10.4676 6.42533 10.5118L2.99845 13.0015C2.96882 13.0228 2.96227 13.0644 2.98388 13.0938L3.48658 13.7859C3.50796 13.8155 3.54948 13.8221 3.57887 13.8005L7.00453 11.3115C7.06549 11.2673 7.14126 11.3428 7.09681 11.4038L4.6071 14.8306C4.58573 14.8603 4.59229 14.9015 4.62167 14.9229L5.3138 15.4256C5.34343 15.447 5.38471 15.4404 5.40608 15.411L7.89507 11.9854C7.93927 11.9244 8.03471 11.973 8.01139 12.0446L6.70242 16.0731C6.69125 16.1078 6.7102 16.1452 6.74492 16.1564L7.55848 16.4206C7.5932 16.4318 7.6306 16.4128 7.64177 16.3781L8.95026 12.3509C8.97357 12.2792 9.07921 12.296 9.07921 12.3713V16.6071C9.07921 16.6435 9.10884 16.6731 9.14527 16.6731H10.0008C10.0373 16.6731 10.0669 16.6435 10.0669 16.6071L10.0761 11.4611C10.0761 11.42 10.0394 11.3897 9.99889 11.3965C9.85901 11.4198 9.71524 11.4322 9.5688 11.4322C8.44853 11.4322 7.49363 10.7247 7.12596 9.73245L7.06549 9.54619C7.01376 9.36599 6.98073 9.17802 6.96932 8.98423V8.9784V8.67581V8.67046C6.97879 8.51358 7.0021 8.36059 7.03804 8.21245C7.03853 8.21026 7.03902 8.20832 7.03974 8.20613L7.1585 7.8404C7.15923 7.83821 7.15996 7.83627 7.16093 7.83408C7.21193 7.71047 7.27167 7.59147 7.34039 7.47831C7.34161 7.47636 7.34307 7.47418 7.34428 7.47223L7.58592 7.13953C7.58737 7.13758 7.58859 7.13588 7.59029 7.13418C7.67796 7.03194 7.77316 6.9365 7.8754 6.84883C7.8771 6.84738 7.87904 6.84592 7.88074 6.84446L8.21515 6.60161C8.21709 6.60015 8.21903 6.59894 8.22122 6.59773C8.33317 6.52997 8.45071 6.47072 8.57287 6.4202C8.57505 6.41923 8.57627 6.41875 8.57821 6.41826C8.60881 6.4083 8.9216 6.30655 8.95123 6.29708C8.95317 6.29635 8.95439 6.2961 8.95657 6.29562C9.10277 6.26041 9.25358 6.23734 9.40803 6.22786H9.41337H9.72277H9.72811C9.81967 6.23369 9.91025 6.24365 9.99913 6.25846C10.0397 6.26526 10.0764 6.23491 10.0764 6.19386V5.71229V1.06606C10.0764 1.02963 10.0467 1 10.0103 1H9.15474C9.11831 1 9.08868 1.02963 9.08868 1.06606V5.30041C9.08868 5.3757 8.98304 5.39245 8.95973 5.32081L7.65076 1.29239C7.63959 1.25767 7.60219 1.23872 7.56746 1.24989L6.75391 1.51436C6.71918 1.52553 6.70024 1.56293 6.71141 1.59766L8.01989 5.62486C8.04321 5.6965 7.94777 5.74507 7.90357 5.68412L5.41385 2.25724C5.39248 2.22761 5.35096 2.22106 5.32157 2.24267L4.62944 2.74537C4.59982 2.76674 4.59326 2.80827 4.61487 2.83766L7.10386 6.26332C7.14806 6.32428 7.07253 6.40004 7.01157 6.3556L3.5847 3.86589C3.55507 3.84452 3.51378 3.85108 3.49241 3.88046L2.98971 4.57259C2.96834 4.60222 2.9749 4.6435 3.00428 4.66487L6.42994 7.15386C6.4909 7.19805 6.44233 7.2935 6.37069 7.27018L2.34227 5.96121C2.30754 5.95004 2.27014 5.96898 2.25897 6.00371L1.99475 6.81726C1.98358 6.85199 2.00252 6.88939 2.03725 6.90056L6.06421 8.20905C6.13585 8.23236 6.11909 8.338 6.04381 8.338H1.808C1.77157 8.338 1.74194 8.36763 1.74194 8.40406L1.74121 8.40527Z" fill="#FF8B00"/>
</svg>
