<svg width="25" height="25" viewBox="0 0 25 25" fill="none" xmlns="http://www.w3.org/2000/svg">
<g id="vuesax/bold/home-2">
<g id="home-2">
<path id="Vector" d="M20.6398 7.31994L14.8798 3.28994C13.3098 2.18994 10.8998 2.24994 9.38984 3.41994L4.37984 7.32994C3.37984 8.10994 2.58984 9.70994 2.58984 10.9699V17.8699C2.58984 20.4199 4.65984 22.4999 7.20984 22.4999H17.9898C20.5398 22.4999 22.6098 20.4299 22.6098 17.8799V11.0999C22.6098 9.74994 21.7398 8.08994 20.6398 7.31994ZM13.3498 18.4999C13.3498 18.9099 13.0098 19.2499 12.5998 19.2499C12.1898 19.2499 11.8498 18.9099 11.8498 18.4999V15.4999C11.8498 15.0899 12.1898 14.7499 12.5998 14.7499C13.0098 14.7499 13.3498 15.0899 13.3498 15.4999V18.4999Z" fill="url(#paint0_linear_4170_10355)"/>
</g>
</g>
<defs>
<linearGradient id="paint0_linear_4170_10355" x1="12.5998" y1="2.5022" x2="12.5998" y2="22.4999" gradientUnits="userSpaceOnUse">
<stop offset="0.0239996" stop-color="#FFA73D"/>
<stop offset="0.599" stop-color="#FF8B00"/>
<stop offset="1" stop-color="#EE8200"/>
</linearGradient>
</defs>
</svg>
