<svg width="191" height="60" viewBox="0 0 191 60" fill="none" xmlns="http://www.w3.org/2000/svg">
<g id="Group 3889" opacity="0.1">
<path id="Vector" d="M131.348 -40.9021L144.505 -34.2857C140.239 -24.3214 135.996 -14.4077 131.727 -4.43233L140.112 -0.215808C132.154 19.8191 124.218 39.7935 116.26 59.8284C107.157 55.4545 98.1143 51.108 88.989 46.7231C103.114 17.504 117.224 -11.6855 131.344 -40.9009L131.348 -40.9021Z" fill="white"/>
<path id="Vector_2" d="M61.5808 -39.5815L70.4317 -35.1305C80.8228 -50.408 91.1965 -65.6571 101.548 -80.8804L106.685 -78.2969C96.6113 -62.863 86.5844 -47.4982 76.5203 -32.0779L85.169 -27.7286C75.0518 -11.2684 64.9657 5.1363 54.8424 21.6027C45.6246 17.1495 36.4179 12.6989 27.1236 8.20729C38.618 -7.73342 50.0777 -23.6297 61.5783 -39.5828L61.5808 -39.5815Z" fill="white"/>
<path id="Vector_3" d="M91.3556 28.468C82.7091 24.262 74.012 20.0337 65.2335 15.7643C73.4076 2.03066 81.5631 -11.6722 89.747 -25.4195L98.334 -21.1012C105.445 -33.8146 112.526 -46.4811 119.615 -59.1588L132.232 -52.8142L91.3556 28.468Z" fill="white"/>
<path id="Vector_4" d="M186.466 72.4574C178.579 68.6151 170.732 64.7926 162.832 60.9465C165.914 45.935 168.991 30.9395 172.091 15.8416L180.16 19.8993C181.901 10.2726 183.622 0.763134 185.355 -8.81173C185.597 -8.69013 185.787 -8.59458 185.979 -8.49779C189.509 -6.68874 193.032 -4.86735 196.573 -3.08051C197.062 -2.83481 197.206 -2.59239 197.125 -2.03921C193.993 19.7916 190.882 41.6238 187.765 63.4559C187.367 66.2453 186.967 69.0371 186.569 71.8265C186.542 72.0228 186.504 72.2142 186.463 72.4562L186.466 72.4574Z" fill="white"/>
<path id="Vector_5" d="M155.018 52.5031C146.639 48.4163 138.326 44.3593 129.957 40.2775C134.818 27.5304 139.665 14.8192 144.539 2.03517L152.864 6.22191C156.709 -4.69938 160.524 -15.5454 164.348 -26.4062L169.584 -23.773C165.939 -12.7821 162.314 -1.84675 158.677 9.11701L166.93 13.2678C162.961 26.3429 158.999 39.3848 155.018 52.5031Z" fill="white"/>
</g>
</svg>
