<svg width="201" height="197" viewBox="0 0 201 197" fill="none" xmlns="http://www.w3.org/2000/svg">
    <g id="Group 3889" opacity="0.1">
        <path id="Vector" d="M129.451 26.9298L137.974 36.5847C135.21 51.125 132.461 65.5915 129.696 80.148L135.128 86.3009C129.973 115.537 124.832 144.684 119.677 173.92C113.78 167.537 107.922 161.195 102.01 154.796C111.161 112.158 120.301 69.5639 129.448 26.9316L129.451 26.9298Z" fill="white"/>
        <path id="Vector_2" d="M84.2557 28.856L89.9894 35.3512C96.7207 13.0576 103.441 -9.19454 110.146 -31.4089L113.474 -27.639C106.949 -5.11722 100.453 17.3037 93.9336 39.8057L99.5361 46.1524C92.9822 70.1718 86.4484 94.1102 79.8906 118.139C73.9193 111.64 67.9552 105.146 61.9343 98.5915C69.3804 75.3302 76.804 52.1336 84.2541 28.8542L84.2557 28.856Z" fill="white"/>
        <path id="Vector_3" d="M103.545 128.157C97.9435 122.019 92.3096 115.849 86.6228 109.619C91.918 89.5783 97.2011 69.5825 102.503 49.5219L108.065 55.8234C112.672 37.2714 117.259 18.7879 121.851 0.288114L130.024 9.54647L103.545 128.157Z" fill="white"/>
        <path id="Vector_4" d="M165.157 192.349C160.048 186.742 154.965 181.164 149.847 175.552C151.844 153.646 153.837 131.764 155.846 109.733L161.073 115.654C162.2 101.606 163.315 87.7295 164.438 73.7575C164.594 73.9349 164.718 74.0744 164.842 74.2156C167.129 76.8555 169.411 79.5133 171.705 82.1207C172.022 82.4793 172.115 82.833 172.063 83.6402C170.034 115.497 168.018 147.355 165.999 179.213C165.741 183.284 165.482 187.358 165.225 191.428C165.207 191.715 165.182 191.994 165.156 192.347L165.157 192.349Z" fill="white"/>
        <path id="Vector_5" d="M144.783 163.23C139.356 157.267 133.97 151.346 128.549 145.39C131.698 126.789 134.838 108.24 137.995 89.5852L143.388 95.6947C145.879 79.7579 148.351 63.9309 150.827 48.0824L154.219 51.9248C151.858 67.9632 149.51 83.9205 147.153 99.9193L152.5 105.976C149.929 125.056 147.363 144.087 144.783 163.23Z" fill="white"/>
        <path id="Vector_6" d="M56.147 39.7614C63.072 21.3729 69.9569 3.09235 76.8538 -15.2152L84.5583 -6.48736C81.5842 2.05334 78.6317 10.5329 75.6488 19.0951L81.2546 25.4454C77.8465 35.7773 74.4658 46.0318 71.0738 56.3187C66.1008 50.8026 61.1583 45.3209 56.1454 39.7596L56.147 39.7614Z" fill="white"/>
    </g>
</svg>
