<svg width="28" height="28" viewBox="0 0 28 28" fill="none" xmlns="http://www.w3.org/2000/svg">
<g id="mail-smiley-sad-face--chat-message-smiley-emoji-sad-face-unsatisfied" clip-path="url(#clip0_1722_13266)">
<g id="Group">
<path id="Vector" d="M14 27C21.1797 27 27 21.1797 27 14C27 6.8203 21.1797 1 14 1C6.8203 1 1 6.8203 1 14C1 21.1797 6.8203 27 14 27Z" stroke="#6A6A6A" stroke-linecap="round" stroke-linejoin="round"/>
<path id="Vector_2" d="M7.39844 20.9997C8.39844 17.3997 12.1984 15.1997 15.9984 16.1997C18.1984 16.7997 19.9984 18.5997 20.7984 20.9997" stroke="#6A6A6A" stroke-linecap="round" stroke-linejoin="round"/>
<path id="Vector_3" d="M9.59922 11.0002C9.37831 11.0002 9.19922 10.8211 9.19922 10.6002C9.19922 10.3793 9.37831 10.2002 9.59922 10.2002" stroke="#6A6A6A" stroke-linecap="round" stroke-linejoin="round"/>
<path id="Vector_4" d="M9.60156 11.0002C9.82248 11.0002 10.0016 10.8211 10.0016 10.6002C10.0016 10.3793 9.82248 10.2002 9.60156 10.2002" stroke="#6A6A6A" stroke-linecap="round" stroke-linejoin="round"/>
<path id="Vector_5" d="M18.4 11.0002C18.1791 11.0002 18 10.8211 18 10.6002C18 10.3793 18.1791 10.2002 18.4 10.2002" stroke="#6A6A6A" stroke-linecap="round" stroke-linejoin="round"/>
<path id="Vector_6" d="M18.3984 11.0002C18.6194 11.0002 18.7984 10.8211 18.7984 10.6002C18.7984 10.3793 18.6194 10.2002 18.3984 10.2002" stroke="#6A6A6A" stroke-linecap="round" stroke-linejoin="round"/>
</g>
</g>
<defs>
<clipPath id="clip0_1722_13266">
<rect width="28" height="28" fill="white"/>
</clipPath>
</defs>
</svg>
