<svg width="62" height="60" viewBox="0 0 62 60" fill="none" xmlns="http://www.w3.org/2000/svg">
<rect width="62" height="60" rx="30" fill="white"/>
<g filter="url(#filter0_d_7803_17961)">
<g filter="url(#filter1_d_7803_17961)">
<path d="M24.0443 33.7574C27.3722 30.7267 30.3566 28.8894 35.1323 28.8894C39.908 28.8894 42.8924 30.7267 46.2202 33.7574C47.6986 35.1037 47.9276 37.2942 46.907 38.9019C46.5392 39.481 45.8344 39.7179 45.1397 39.7179H25.125C24.4303 39.7179 23.7253 39.481 23.3577 38.9019C22.3371 37.2942 22.5659 35.1037 24.0443 33.7574Z" fill="url(#paint0_linear_7803_17961)"/>
</g>
<g filter="url(#filter2_d_7803_17961)">
<path d="M35.2195 26.1821C38.6436 26.1821 41.4194 23.455 41.4194 20.0911C41.4194 16.7271 38.6436 14 35.2195 14C31.7954 14 29.0195 16.7271 29.0195 20.0911C29.0195 23.455 31.7954 26.1821 35.2195 26.1821Z" fill="url(#paint1_linear_7803_17961)"/>
</g>
<path d="M15.7787 39.1715C19.1066 36.1408 22.091 34.3035 26.8667 34.3035C31.6424 34.3035 34.6267 36.1408 37.9547 39.1715C39.4331 40.5178 39.662 42.7084 38.6413 44.3161C38.2737 44.8951 37.5687 45.132 36.874 45.132H16.8593C16.1646 45.132 15.4597 44.8951 15.0921 44.3161C14.0714 42.7084 14.3003 40.5178 15.7787 39.1715Z" fill="url(#paint2_linear_7803_17961)"/>
<path d="M26.866 31.5969C30.2901 31.5969 33.0659 28.8698 33.0659 25.5058C33.0659 22.1419 30.2901 19.4148 26.866 19.4148C23.4418 19.4148 20.666 22.1419 20.666 25.5058C20.666 28.8698 23.4418 31.5969 26.866 31.5969Z" fill="url(#paint3_linear_7803_17961)"/>
</g>
<defs>
<filter id="filter0_d_7803_17961" x="11.0514" y="10.5846" width="39.8952" height="37.9628" filterUnits="userSpaceOnUse" color-interpolation-filters="sRGB">
<feFlood flood-opacity="0" result="BackgroundImageFix"/>
<feColorMatrix in="SourceAlpha" type="matrix" values="0 0 0 0 0 0 0 0 0 0 0 0 0 0 0 0 0 0 127 0" result="hardAlpha"/>
<feOffset/>
<feGaussianBlur stdDeviation="1.70769"/>
<feComposite in2="hardAlpha" operator="out"/>
<feColorMatrix type="matrix" values="0 0 0 0 1 0 0 0 0 1 0 0 0 0 1 0 0 0 0.8 0"/>
<feBlend mode="normal" in2="BackgroundImageFix" result="effect1_dropShadow_7803_17961"/>
<feBlend mode="normal" in="SourceGraphic" in2="effect1_dropShadow_7803_17961" result="shape"/>
</filter>
<filter id="filter1_d_7803_17961" x="19.9612" y="26.1182" width="30.3412" height="16.371" filterUnits="userSpaceOnUse" color-interpolation-filters="sRGB">
<feFlood flood-opacity="0" result="BackgroundImageFix"/>
<feColorMatrix in="SourceAlpha" type="matrix" values="0 0 0 0 0 0 0 0 0 0 0 0 0 0 0 0 0 0 127 0" result="hardAlpha"/>
<feOffset/>
<feGaussianBlur stdDeviation="1.38559"/>
<feComposite in2="hardAlpha" operator="out"/>
<feColorMatrix type="matrix" values="0 0 0 0 1 0 0 0 0 1 0 0 0 0 1 0 0 0 0.8 0"/>
<feBlend mode="normal" in2="BackgroundImageFix" result="effect1_dropShadow_7803_17961"/>
<feBlend mode="normal" in="SourceGraphic" in2="effect1_dropShadow_7803_17961" result="shape"/>
</filter>
<filter id="filter2_d_7803_17961" x="26.2484" y="11.2288" width="17.9427" height="17.7245" filterUnits="userSpaceOnUse" color-interpolation-filters="sRGB">
<feFlood flood-opacity="0" result="BackgroundImageFix"/>
<feColorMatrix in="SourceAlpha" type="matrix" values="0 0 0 0 0 0 0 0 0 0 0 0 0 0 0 0 0 0 127 0" result="hardAlpha"/>
<feOffset/>
<feGaussianBlur stdDeviation="1.38559"/>
<feComposite in2="hardAlpha" operator="out"/>
<feColorMatrix type="matrix" values="0 0 0 0 1 0 0 0 0 1 0 0 0 0 1 0 0 0 0.8 0"/>
<feBlend mode="normal" in2="BackgroundImageFix" result="effect1_dropShadow_7803_17961"/>
<feBlend mode="normal" in="SourceGraphic" in2="effect1_dropShadow_7803_17961" result="shape"/>
</filter>
<linearGradient id="paint0_linear_7803_17961" x1="47.5322" y1="34.3689" x2="26.1734" y2="43.1284" gradientUnits="userSpaceOnUse">
<stop stop-color="#FFC995"/>
<stop offset="0.704014" stop-color="#FCDFC3"/>
<stop offset="1" stop-color="#FFE0C1"/>
</linearGradient>
<linearGradient id="paint1_linear_7803_17961" x1="41.4194" y1="20.1645" x2="4.49871" y2="26.5997" gradientUnits="userSpaceOnUse">
<stop stop-color="#FFC995"/>
<stop offset="0.310086" stop-color="#FCDFC3"/>
<stop offset="1" stop-color="#FFE0C1"/>
</linearGradient>
<linearGradient id="paint2_linear_7803_17961" x1="26.8667" y1="34.3035" x2="26.8667" y2="45.132" gradientUnits="userSpaceOnUse">
<stop offset="0.0239996" stop-color="#FFA73D"/>
<stop offset="0.599" stop-color="#FF8B00"/>
<stop offset="1" stop-color="#EE8200"/>
</linearGradient>
<linearGradient id="paint3_linear_7803_17961" x1="26.866" y1="19.4148" x2="26.866" y2="31.5969" gradientUnits="userSpaceOnUse">
<stop offset="0.0239996" stop-color="#FFA73D"/>
<stop offset="0.599" stop-color="#FF8B00"/>
<stop offset="1" stop-color="#EE8200"/>
</linearGradient>
</defs>
</svg>
