<svg width="16" height="17" viewBox="0 0 16 17" fill="none" xmlns="http://www.w3.org/2000/svg">
<g id="message-read">
<path id="Vector 2606" d="M8.0008 9.91179L3.29492 7.08826V12.2647H12.7067V7.08826L8.0008 9.91179Z" fill="black"/>
<path id="Vector" d="M7.8344 3.75792C7.88464 3.72782 7.94212 3.71191 8.00069 3.71191C8.05926 3.71191 8.11674 3.72782 8.16698 3.75792L12.5489 6.38692C12.7406 6.50196 12.8992 6.6647 13.0093 6.8593C13.1195 7.05389 13.1773 7.27369 13.1772 7.49728V11.1532C13.1772 11.5822 13.0067 11.9936 12.7034 12.297C12.4 12.6004 11.9885 12.7708 11.5595 12.7708H4.44187C4.01284 12.7708 3.60138 12.6004 3.29802 12.297C2.99465 11.9936 2.82422 11.5822 2.82422 11.1532V7.49728C2.8241 7.27369 2.88192 7.05389 2.99203 6.8593C3.10214 6.6647 3.26079 6.50196 3.45251 6.38692L7.8344 3.75792ZM8.00069 4.41275L3.78575 6.9421L3.77669 6.94728L8.00069 9.48181L12.2247 6.94728L12.2163 6.9421L8.00069 4.41275ZM12.5301 7.51863L10.3485 8.82763L8.16698 10.1366C8.11674 10.1667 8.05926 10.1826 8.00069 10.1826C7.94212 10.1826 7.88464 10.1667 7.8344 10.1366L3.47128 7.51863V11.1532C3.47128 11.4106 3.57354 11.6574 3.75556 11.8395C3.93758 12.0215 4.18445 12.1237 4.44187 12.1237H11.5595C11.8169 12.1237 12.0638 12.0215 12.2458 11.8395C12.4278 11.6574 12.5301 11.4106 12.5301 11.1532V7.51863Z" fill="black"/>
</g>
</svg>
