<svg width="20" height="20" viewBox="0 0 20 20" fill="none" xmlns="http://www.w3.org/2000/svg">
<rect width="20" height="20" rx="10" fill="#FF8B00"/>
<path fill-rule="evenodd" clip-rule="evenodd" d="M7.57422 6.02961V7.26237C7.57422 7.30098 7.57768 7.33866 7.5843 7.37516H7.57422V12.4819C7.37873 12.4128 7.16837 12.3752 6.94922 12.3752C5.91368 12.3752 5.07422 13.2146 5.07422 14.2502C5.07422 15.2857 5.91368 16.1252 6.94922 16.1252C7.98475 16.1252 8.82422 15.2857 8.82422 14.2502V7.79183L13.8242 6.95849V11.2318C13.6287 11.1628 13.4184 11.1252 13.1992 11.1252C12.1637 11.1252 11.3242 11.9646 11.3242 13.0002C11.3242 14.0357 12.1637 14.8752 13.1992 14.8752C14.2348 14.8752 15.0742 14.0357 15.0742 13.0002L15.0742 6.22071L15.0742 6.12516L15.0742 4.98795C15.0742 4.60174 14.7274 4.30796 14.3465 4.37145L8.09647 5.41312C7.7951 5.46335 7.57422 5.72409 7.57422 6.02961Z" fill="white"/>
</svg>
