<svg width="34" height="34" viewBox="0 0 34 34" fill="none" xmlns="http://www.w3.org/2000/svg">
    <g id="Frame 1948757860">
        <!-- Changed rect fill to gradient -->
        <rect width="34" height="34" rx="17" fill="url(#paint0_linear_3009_13704)"/>
        <!-- Changed path fill to white -->
        <path id="Vector" d="M19.7294 25.7383C18.5797 27.5863 15.7447 27.5636 14.6299 25.6971L10.04 18.021C6.88273 12.7428 10.9479 6.21007 17.3582 6.26363C23.7685 6.31514 27.7139 12.9138 24.4609 18.1384L19.7316 25.7383H19.7294Z" fill="white"/>
        <path id="Vector_2" d="M20.6367 14.5789C20.6367 16.2677 19.2677 17.6367 17.579 17.6367C15.8902 17.6367 14.5212 16.2677 14.5212 14.5789C14.5212 12.8902 15.8902 11.5212 17.579 11.5212C19.2677 11.5212 20.6367 12.8902 20.6367 14.5789Z" fill="url(#paint1_linear_3009_13704)" stroke="white" stroke-width="1.04237"/>
    </g>
    <defs>
        <linearGradient id="paint0_linear_3009_13704" x1="17" y1="0" x2="17" y2="34" gradientUnits="userSpaceOnUse">
            <stop offset="0.0239996" stop-color="#FFA73D"/>
            <stop offset="0.599" stop-color="#FF8B00"/>
            <stop offset="1" stop-color="#EE8200"/>
        </linearGradient>
        <linearGradient id="paint1_linear_3009_13704" x1="17.5789" y1="11" x2="17.5789" y2="18.1579" gradientUnits="userSpaceOnUse">
            <stop offset="0.0239996" stop-color="#FFA73D"/>
            <stop offset="0.599" stop-color="#FF8B00"/>
            <stop offset="1" stop-color="#EE8200"/>
        </linearGradient>
    </defs>
</svg>
