<svg width="16" height="16" viewBox="0 0 16 16" fill="none" xmlns="http://www.w3.org/2000/svg">
    <g id="Outline/clipboard">
        <path id="Vector" fill-rule="evenodd" clip-rule="evenodd" d="M4.50944 2.56524C3.42528 2.62013 2.56311 3.51656 2.56311 4.61437V12.8783C2.56311 14.0114 3.48172 14.93 4.61489 14.93H11.3854C12.5185 14.93 13.4372 14.0114 13.4372 12.8783V4.61437C13.4372 3.51601 12.5741 2.61924 11.4892 2.56516C11.3309 3.41371 10.5864 4.05603 9.69194 4.05603H6.3067C5.41225 4.05603 4.66782 3.41375 4.50944 2.56524ZM11.4899 1.49436C13.1656 1.54946 14.5071 2.92524 14.5071 4.61437V12.8783C14.5071 14.6023 13.1095 16 11.3854 16H4.61489C2.89081 16 1.49316 14.6023 1.49316 12.8783V4.61437C1.49316 2.9258 2.83382 1.55036 4.50877 1.49441C4.66571 0.644103 5.41098 0 6.3067 0H9.69194C10.5876 0 11.3329 0.644078 11.4899 1.49436ZM5.54829 1.82835C5.54829 1.40949 5.88784 1.06994 6.3067 1.06994H9.69194C10.1108 1.06994 10.4503 1.40949 10.4503 1.82835V2.22768C10.4503 2.64654 10.1108 2.98609 9.69194 2.98609H6.3067C5.88784 2.98609 5.54829 2.64654 5.54829 2.22768V1.82835Z" fill="#FF8B00"/>
    </g>
</svg>
