<svg width="16" height="17" viewBox="0 0 16 17" fill="none" xmlns="http://www.w3.org/2000/svg">
    <g id="Frame 1948757919">
        <g id="Vector">
            <path d="M8 8.27718C8.46935 8.27718 8.84983 8.65766 8.84983 9.12701V11.6765C8.84983 12.1459 8.46935 12.5263 8 12.5263C7.53065 12.5263 7.15017 12.1459 7.15017 11.6765V9.12701C7.15017 8.65766 7.53065 8.27718 8 8.27718Z" fill="#FF8B00"/>
            <path d="M8.84983 5.68382C8.84983 5.21447 8.46935 4.83398 8 4.83398C7.53065 4.83398 7.15017 5.21447 7.15017 5.68382V6.53365C7.15017 7.003 7.53065 7.38348 8 7.38348C8.46935 7.38348 8.84983 7.003 8.84983 6.53365V5.68382Z" fill="#FF8B00"/>
            <path fill-rule="evenodd" clip-rule="evenodd" d="M0 8.83398C0 4.41571 3.58172 0.833984 8 0.833984C12.4183 0.833984 16 4.41571 16 8.83398C16 13.2523 12.4183 16.834 8 16.834C3.58172 16.834 0 13.2523 0 8.83398ZM8 1.537C3.96999 1.537 0.703019 4.80397 0.703019 8.83398C0.703019 12.864 3.96999 16.131 8 16.131C12.03 16.131 15.297 12.864 15.297 8.83398C15.297 4.80397 12.03 1.537 8 1.537Z" fill="#FF8B00"/>
        </g>
    </g>
</svg>
