<svg width="16" height="16" viewBox="0 0 16 16" fill="none" xmlns="http://www.w3.org/2000/svg">
    <g id="Outline/mail">
        <path id="Vector" fill-rule="evenodd" clip-rule="evenodd" d="M3.59097 2C1.60773 2 0 3.60773 0 5.59097V11.127C0 13.1102 1.60773 14.7179 3.59097 14.7179H12.409C14.3923 14.7179 16 13.1102 16 11.127V5.59097C16 3.60773 14.3923 2 12.409 2H3.59097ZM2.7541 3.38343C3.01421 3.28478 3.29628 3.23077 3.59097 3.23077H12.409C12.6587 3.23077 12.8994 3.26955 13.1253 3.34142L9.64974 7.08434C8.71597 8.08994 7.12443 8.08994 6.19066 7.08434L2.7541 3.38343ZM1.75131 4.11226C1.42567 4.51687 1.23077 5.03116 1.23077 5.59097V11.127C1.23077 12.4305 2.28747 13.4872 3.59097 13.4872H12.409C13.7125 13.4872 14.7692 12.4305 14.7692 11.127V5.59097C14.7692 4.98882 14.5437 4.43933 14.1726 4.02235L10.5516 7.92182C9.13094 9.4518 6.70946 9.45181 5.28876 7.92182L1.75131 4.11226Z" fill="#FF8B00"/>
    </g>
</svg>
