<svg width="129" height="100" viewBox="0 0 129 100" fill="none" xmlns="http://www.w3.org/2000/svg">
<g id="1e_ logo icon 5" opacity="0.1">
<path id="Vector" d="M112.195 61.0309V56.4875C112.195 56.294 112.038 56.1367 111.844 56.1367H89.352C88.9521 56.1367 88.8631 55.5755 89.2436 55.4517L110.642 48.4986C110.827 48.4392 110.927 48.2406 110.868 48.0561L109.463 43.7346C109.404 43.5501 109.205 43.4495 109.021 43.5088L87.6285 50.4594C87.248 50.5832 86.99 50.0762 87.3138 49.8415L105.517 36.6164C105.674 36.5029 105.709 36.2823 105.594 36.1262L102.924 32.4497C102.811 32.2923 102.59 32.2575 102.434 32.3723L84.2371 45.5935C83.9133 45.8283 83.5109 45.4271 83.7469 45.1033L96.972 26.9001C97.0855 26.7427 97.0507 26.5234 96.8946 26.4099L93.2181 23.7396C93.0607 23.6261 92.8414 23.6609 92.7279 23.817L79.5067 42.0137C79.2719 42.3375 78.7649 42.0795 78.8888 41.699L85.8419 20.3005C85.9012 20.116 85.8006 19.9173 85.6161 19.858L81.2946 18.4545C81.1102 18.3951 80.9115 18.4957 80.8522 18.6802L73.9017 40.071C73.7778 40.4515 73.2167 40.3625 73.2167 39.9626V17.4625C73.2167 17.269 73.0593 17.1116 72.8658 17.1116H68.3211C68.1276 17.1116 67.9702 17.269 67.9702 17.4625L67.9212 44.7976C67.9212 45.0156 68.116 45.1768 68.3314 45.1407C69.0745 45.0169 69.8381 44.9511 70.616 44.9511C76.5668 44.9511 81.6391 48.7088 83.5921 53.9798L83.9133 54.9692C84.1881 55.9264 84.3636 56.9248 84.4242 57.9543V57.9852V59.5926V59.6209C84.3739 60.4543 84.25 61.267 84.0591 62.0539C84.0565 62.0655 84.0539 62.0758 84.0501 62.0874L83.4193 64.0302C83.4154 64.0418 83.4115 64.0521 83.4064 64.0637C83.1355 64.7203 82.8181 65.3524 82.4531 65.9535C82.4466 65.9639 82.4389 65.9755 82.4324 65.9858L81.1489 67.7531C81.1411 67.7634 81.1347 67.7724 81.1257 67.7815C80.66 68.3246 80.1543 68.8315 79.6112 69.2972C79.6022 69.305 79.5918 69.3127 79.5828 69.3205L77.8065 70.6105C77.7962 70.6182 77.7858 70.6246 77.7742 70.6311C77.1795 70.991 76.5552 71.3058 75.9063 71.5741C75.8947 71.5792 75.8883 71.5818 75.8779 71.5844C75.7154 71.6373 74.0539 72.1778 73.8965 72.2281C73.8862 72.232 73.8797 72.2333 73.8681 72.2359C73.0915 72.4229 72.2904 72.5454 71.47 72.5958H71.4416H69.7982H69.7698C69.2834 72.5648 68.8023 72.5119 68.3301 72.4332C68.1147 72.3971 67.9199 72.5583 67.9199 72.7764V75.3344V100.015C67.9199 100.208 68.0773 100.366 68.2708 100.366H72.8155C73.009 100.366 73.1663 100.208 73.1663 100.015V77.5223C73.1663 77.1224 73.7275 77.0334 73.8513 77.4139L80.8044 98.8124C80.8638 98.9969 81.0624 99.0975 81.2469 99.0382L85.5684 97.6334C85.7529 97.574 85.8535 97.3754 85.7942 97.1909L78.8436 75.8001C78.7198 75.4196 79.2268 75.1616 79.4615 75.4854L92.6866 93.6885C92.8002 93.8459 93.0207 93.8808 93.1768 93.766L96.8533 91.0956C97.0107 90.9821 97.0455 90.7615 96.9307 90.6055L83.7095 72.4087C83.4747 72.0849 83.8759 71.6824 84.1997 71.9185L102.403 85.1436C102.56 85.2571 102.78 85.2223 102.893 85.0662L105.563 81.3897C105.677 81.2323 105.642 81.013 105.486 80.8995L87.2893 67.6783C86.9655 67.4435 87.2235 66.9365 87.604 67.0604L109.003 74.0135C109.187 74.0728 109.386 73.9722 109.445 73.7877L110.849 69.4662C110.908 69.2818 110.807 69.0831 110.623 69.0237L89.232 62.0732C88.8515 61.9494 88.9405 61.3882 89.3404 61.3882H111.841C112.034 61.3882 112.191 61.2309 112.191 61.0374L112.195 61.0309Z" fill="#808080"/>
<path id="Vector_2" d="M17.8027 38.7744V43.3178C17.8027 43.5113 17.9601 43.6687 18.1536 43.6687H40.6461C41.046 43.6687 41.135 44.2299 40.7544 44.3537L19.3559 51.3068C19.1714 51.3661 19.0708 51.5648 19.1301 51.7493L20.535 56.0708C20.5943 56.2552 20.793 56.3559 20.9774 56.2965L42.3695 49.346C42.75 49.2222 43.008 49.7291 42.6843 49.9639L24.4811 63.189C24.3237 63.3025 24.2889 63.5231 24.4037 63.6792L27.074 67.3557C27.1875 67.5131 27.4081 67.5479 27.5642 67.4331L45.7609 54.2119C46.0847 53.9771 46.4872 54.3783 46.2511 54.7021L33.026 72.9053C32.9125 73.0626 32.9473 73.2819 33.1034 73.3955L36.7799 76.0658C36.9373 76.1793 37.1566 76.1445 37.2701 75.9884L50.4913 57.7916C50.7261 57.4678 51.2331 57.7258 51.1092 58.1064L44.1561 79.5049C44.0968 79.6894 44.1974 79.888 44.3819 79.9474L48.7034 81.3509C48.8879 81.4102 49.0865 81.3096 49.1459 81.1251L56.0964 59.7331C56.2202 59.3525 56.7814 59.4415 56.7814 59.8414V82.3416C56.7814 82.5351 56.9388 82.6925 57.1323 82.6925H61.6769C61.8704 82.6925 62.0278 82.5351 62.0278 82.3416L62.0768 55.0065C62.0768 54.7885 61.882 54.6273 61.6666 54.6634C60.9236 54.7872 60.1599 54.853 59.382 54.853C53.4312 54.853 48.359 51.0952 46.4059 45.8243L46.0847 44.8349C45.8099 43.8777 45.6345 42.8792 45.5739 41.8498V41.8188V40.2115V40.1831C45.6242 39.3498 45.748 38.5371 45.9389 37.7502C45.9415 37.7386 45.9441 37.7283 45.948 37.7166L46.5788 35.7739C46.5826 35.7623 46.5865 35.752 46.5917 35.7404C46.8626 35.0838 47.1799 34.4517 47.545 33.8505C47.5514 33.8402 47.5592 33.8286 47.5656 33.8183L48.8492 32.051C48.8569 32.0406 48.8634 32.0316 48.8724 32.0226C49.3381 31.4795 49.8438 30.9725 50.3868 30.5068C50.3959 30.4991 50.4062 30.4914 50.4152 30.4836L52.1916 29.1936C52.2019 29.1859 52.2122 29.1794 52.2238 29.173C52.8185 28.8131 53.4429 28.4983 54.0917 28.23C54.1033 28.2248 54.1098 28.2222 54.1201 28.2197C54.2826 28.1668 55.9442 27.6263 56.1015 27.576C56.1119 27.5721 56.1183 27.5708 56.1299 27.5682C56.9065 27.3812 57.7076 27.2586 58.528 27.2083H58.5564H60.1999H60.2283C60.7146 27.2393 61.1958 27.2922 61.6679 27.3708C61.8833 27.407 62.0781 27.2457 62.0781 27.0277V24.4696V-0.210644C62.0781 -0.404144 61.9207 -0.561523 61.7272 -0.561523H57.1826C56.9891 -0.561523 56.8317 -0.404144 56.8317 -0.210644V22.2818C56.8317 22.6817 56.2705 22.7707 56.1467 22.3902L49.1936 0.991637C49.1343 0.807167 48.9356 0.706547 48.7511 0.765887L44.4296 2.1707C44.2452 2.23004 44.1445 2.4287 44.2039 2.61317L51.1544 24.0052C51.2782 24.3858 50.7713 24.6438 50.5365 24.32L37.3114 6.11681C37.1979 5.95943 36.9773 5.9246 36.8212 6.03941L33.1447 8.70971C32.9873 8.82323 32.9525 9.04382 33.0673 9.19991L46.2885 27.3966C46.5233 27.7204 46.1221 28.1229 45.7983 27.8868L27.5951 14.6618C27.4377 14.5482 27.2184 14.5831 27.1049 14.7392L24.4346 18.4157C24.3211 18.573 24.3559 18.7923 24.512 18.9059L42.7088 32.1271C43.0326 32.3619 42.7746 32.8688 42.394 32.745L20.9955 25.7919C20.811 25.7325 20.6124 25.8332 20.553 26.0176L19.1495 30.3391C19.0902 30.5236 19.1908 30.7223 19.3752 30.7816L40.766 37.7321C41.1466 37.856 41.0576 38.4171 40.6577 38.4171H18.1575C17.964 38.4171 17.8066 38.5745 17.8066 38.768L17.8027 38.7744Z" fill="#F68B1F"/>
</g>
</svg>
