<svg width="60" height="56" viewBox="0 0 60 56" fill="none" xmlns="http://www.w3.org/2000/svg">
<rect width="60" height="56" rx="28" fill="#FFF3E7"/>
<g filter="url(#filter0_b_4117_14462)">
<path d="M40.7954 27.9842C39.756 26.7642 39.2837 25.707 39.2837 23.9109V23.3002C39.2837 20.9597 38.7478 19.4516 37.5825 17.9436C35.7866 15.6016 32.7633 14.1901 29.8035 14.1901H29.6777C26.7802 14.1901 23.8516 15.5368 22.0246 17.7837C20.7957 19.322 20.1975 20.8948 20.1975 23.3002V23.9109C20.1975 25.707 19.7563 26.7642 18.6859 27.9842C17.8982 28.883 17.6465 30.0381 17.6465 31.2883C17.6465 32.54 18.0552 33.7254 18.8753 34.689C19.9458 35.8441 21.4575 36.5816 23.0017 36.7098C25.2374 36.9662 27.4731 37.0627 29.7413 37.0627C32.0081 37.0627 34.2438 36.9014 36.481 36.7098C38.0237 36.5816 39.5354 35.8441 40.6059 34.689C41.4247 33.7254 41.8348 32.54 41.8348 31.2883C41.8348 30.0381 41.583 28.883 40.7954 27.9842Z" fill="url(#paint0_linear_4117_14462)"/>
<path d="M21.8368 17.6337L21.8381 17.6321C23.7124 15.3271 26.7105 13.9498 29.6777 13.9498H29.8035C32.8334 13.9498 35.9289 15.3925 37.773 17.797C38.9733 19.3507 39.524 20.9115 39.524 23.3002V23.9109C39.524 24.7872 39.6391 25.4698 39.8739 26.0769C40.1088 26.6843 40.4687 27.2301 40.9772 27.8271C41.8182 28.7875 42.0751 30.0099 42.0751 31.2883C42.0751 32.5939 41.6466 33.8353 40.789 34.8446L40.7823 34.8525L40.7821 34.8523C39.6714 36.051 38.1042 36.816 36.501 36.9493C36.5009 36.9493 36.5009 36.9493 36.5008 36.9493L36.481 36.7098C34.2438 36.9014 32.0081 37.0627 29.7413 37.0627C27.4731 37.0627 25.2374 36.9662 23.0017 36.7098L21.8368 17.6337ZM21.8368 17.6337C20.5724 19.2165 19.9572 20.8429 19.9572 23.3002V23.9109C19.9572 24.789 19.8494 25.4716 19.6185 26.0781C19.3877 26.6846 19.0283 27.2296 18.5052 27.8257L18.5051 27.8258C17.6633 28.7864 17.4062 30.0093 17.4062 31.2883C17.4062 32.5938 17.8331 33.8352 18.6924 34.8447L18.6922 34.8449L18.6991 34.8523C19.8091 36.0501 21.3747 36.8149 22.9781 36.9489L21.8368 17.6337Z" stroke="url(#paint1_linear_4117_14462)" stroke-width="0.480596" stroke-linecap="round" stroke-linejoin="round"/>
</g>
<g filter="url(#filter1_b_4117_14462)">
<path d="M32.9385 38.6043C32.2272 38.4516 27.8929 38.4516 27.1816 38.6043C26.5736 38.7454 25.916 39.0738 25.916 39.794C25.9514 40.481 26.3516 41.0874 26.9059 41.472L26.9045 41.4734C27.6214 42.0351 28.4628 42.3923 29.3438 42.5205C29.8133 42.5854 30.2913 42.5825 30.7777 42.5205C31.6573 42.3923 32.4987 42.0351 33.2156 41.4734L33.2142 41.472C33.7685 41.0874 34.1687 40.481 34.2041 39.794C34.2041 39.0738 33.5465 38.7454 32.9385 38.6043Z" fill="url(#paint2_linear_4117_14462)"/>
<path d="M32.9928 38.3702L32.9928 38.3701L32.9889 38.3693C32.7864 38.3258 32.3595 38.2971 31.8478 38.2782C31.3266 38.259 30.6928 38.2494 30.0601 38.2494C29.4273 38.2494 28.7935 38.259 28.2723 38.2782C27.7606 38.2971 27.3337 38.3258 27.1312 38.3693L27.1312 38.3693L27.1273 38.3702C26.8066 38.4446 26.4515 38.5726 26.1719 38.7934C25.8842 39.0205 25.6757 39.348 25.6757 39.794H25.6754L25.676 39.8063C25.7153 40.5695 26.152 41.2308 26.7422 41.6506C26.7467 41.6548 26.7514 41.6588 26.7563 41.6626C27.5062 42.2502 28.3868 42.6241 29.3092 42.7583L29.3109 42.7586C29.8035 42.8266 30.3028 42.8232 30.8081 42.7589L30.8081 42.7589L30.8124 42.7583C31.7334 42.6241 32.6139 42.2501 33.3638 41.6626C33.3687 41.6588 33.3734 41.6548 33.3779 41.6506C33.9681 41.2308 34.4048 40.5695 34.4441 39.8063L34.4444 39.8063V39.794C34.4444 39.348 34.2359 39.0205 33.9482 38.7934C33.6686 38.5726 33.3135 38.4446 32.9928 38.3702Z" stroke="url(#paint3_linear_4117_14462)" stroke-width="0.480596" stroke-linecap="round" stroke-linejoin="round"/>
</g>
<g filter="url(#filter2_bd_4117_14462)">
<path d="M32.1023 18.1525C31.5977 18.0387 31.0882 18.3349 30.9307 18.8146C30.8778 19.0815 30.9199 19.3643 31.07 19.5897C31.2201 19.815 31.4551 19.9747 31.7305 20.0335L31.7669 20.0445C32.5871 20.2922 33.1763 21.0219 33.2319 21.863C33.2586 22.4111 33.7208 22.8337 34.263 22.8174C34.8088 22.7893 35.2268 22.3369 35.2059 21.8034C35.0862 20.107 33.8965 18.6559 32.2419 18.1947L32.1023 18.1525Z" fill="url(#paint4_linear_4117_14462)"/>
<path d="M31.7404 19.9865L31.7405 19.9863L31.7443 19.9875L31.7807 19.9984C32.6196 20.2518 33.2229 20.9982 33.2798 21.8599L33.2798 21.8599L33.2799 21.8607C33.3053 22.3823 33.745 22.7845 34.261 22.7693C34.7808 22.7424 35.1773 22.3119 35.158 21.8059C35.0394 20.1304 33.864 18.6968 32.2291 18.2411L32.2291 18.2411L32.2281 18.2408L32.0901 18.1991C31.6114 18.092 31.1279 18.3727 30.9772 18.8269C30.9273 19.0823 30.9684 19.3505 31.1099 19.563C31.2529 19.7777 31.477 19.9303 31.7404 19.9865Z" stroke="url(#paint5_linear_4117_14462)" stroke-opacity="0.5" stroke-width="0.0961193"/>
</g>
<defs>
<filter id="filter0_b_4117_14462" x="-125.961" y="-129.418" width="311.403" height="310.089" filterUnits="userSpaceOnUse" color-interpolation-filters="sRGB">
<feFlood flood-opacity="0" result="BackgroundImageFix"/>
<feGaussianBlur in="BackgroundImageFix" stdDeviation="71.5637"/>
<feComposite in2="SourceAlpha" operator="in" result="effect1_backgroundBlur_4117_14462"/>
<feBlend mode="normal" in="SourceGraphic" in2="effect1_backgroundBlur_4117_14462" result="shape"/>
</filter>
<filter id="filter1_b_4117_14462" x="18.2266" y="30.8001" width="23.6679" height="19.4574" filterUnits="userSpaceOnUse" color-interpolation-filters="sRGB">
<feFlood flood-opacity="0" result="BackgroundImageFix"/>
<feGaussianBlur in="BackgroundImageFix" stdDeviation="3.60447"/>
<feComposite in2="SourceAlpha" operator="in" result="effect1_backgroundBlur_4117_14462"/>
<feBlend mode="normal" in="SourceGraphic" in2="effect1_backgroundBlur_4117_14462" result="shape"/>
</filter>
<filter id="filter2_bd_4117_14462" x="23.6993" y="10.9192" width="18.7167" height="19.1076" filterUnits="userSpaceOnUse" color-interpolation-filters="sRGB">
<feFlood flood-opacity="0" result="BackgroundImageFix"/>
<feGaussianBlur in="BackgroundImageFix" stdDeviation="3.60447"/>
<feComposite in2="SourceAlpha" operator="in" result="effect1_backgroundBlur_4117_14462"/>
<feColorMatrix in="SourceAlpha" type="matrix" values="0 0 0 0 0 0 0 0 0 0 0 0 0 0 0 0 0 0 127 0" result="hardAlpha"/>
<feOffset dx="2.40298" dy="2.40298"/>
<feGaussianBlur stdDeviation="2.40298"/>
<feColorMatrix type="matrix" values="0 0 0 0 1 0 0 0 0 0.545098 0 0 0 0 0 0 0 0 1 0"/>
<feBlend mode="normal" in2="effect1_backgroundBlur_4117_14462" result="effect2_dropShadow_4117_14462"/>
<feBlend mode="normal" in="SourceGraphic" in2="effect2_dropShadow_4117_14462" result="shape"/>
</filter>
<linearGradient id="paint0_linear_4117_14462" x1="29.7406" y1="14.1901" x2="29.7406" y2="37.0627" gradientUnits="userSpaceOnUse">
<stop offset="0.0239996" stop-color="#FFA73D"/>
<stop offset="0.599" stop-color="#FF8B00"/>
<stop offset="1" stop-color="#EE8200"/>
</linearGradient>
<linearGradient id="paint1_linear_4117_14462" x1="21.4969" y1="16.8548" x2="35.8949" y2="35.7128" gradientUnits="userSpaceOnUse">
<stop stop-color="white" stop-opacity="0.25"/>
<stop offset="1" stop-color="white" stop-opacity="0"/>
</linearGradient>
<linearGradient id="paint2_linear_4117_14462" x1="30.0601" y1="38.4897" x2="30.0601" y2="42.5681" gradientUnits="userSpaceOnUse">
<stop offset="0.0239996" stop-color="#FFA73D"/>
<stop offset="0.599" stop-color="#FF8B00"/>
<stop offset="1" stop-color="#EE8200"/>
</linearGradient>
<linearGradient id="paint3_linear_4117_14462" x1="27.2353" y1="38.9649" x2="29.0617" y2="43.5618" gradientUnits="userSpaceOnUse">
<stop stop-color="white" stop-opacity="0.25"/>
<stop offset="1" stop-color="white" stop-opacity="0"/>
</linearGradient>
<linearGradient id="paint4_linear_4117_14462" x1="35.0559" y1="19.3321" x2="33.6961" y2="23.4535" gradientUnits="userSpaceOnUse">
<stop stop-color="white"/>
<stop offset="1" stop-color="white" stop-opacity="0.2"/>
</linearGradient>
<linearGradient id="paint5_linear_4117_14462" x1="33.3979" y1="22.1721" x2="34.3403" y2="19.0029" gradientUnits="userSpaceOnUse">
<stop stop-color="white"/>
<stop offset="1" stop-color="white" stop-opacity="0"/>
</linearGradient>
</defs>
</svg>
