<svg width="16" height="16" viewBox="0 0 16 16" fill="none" xmlns="http://www.w3.org/2000/svg">
    <g id="Outline/lock-close">
        <path id="Vector" fill-rule="evenodd" clip-rule="evenodd" d="M7.99868 1.49865C6.6328 1.49865 5.52553 2.60591 5.52553 3.97179V4.83364H10.4718V3.97179C10.4718 2.60591 9.36456 1.49865 7.99868 1.49865ZM4.02675 3.97179V4.987C2.1706 5.49262 0.8059 7.19024 0.8059 9.2066V11.6271C0.8059 14.0422 2.76374 16 5.17886 16H10.8219C13.237 16 15.1948 14.0422 15.1948 11.6271V9.2066C15.1948 7.18901 13.8285 5.49056 11.9706 4.98609V3.97179C11.9706 1.77816 10.1923 -0.000137329 7.99868 -0.000137329C5.80504 -0.000137329 4.02675 1.77816 4.02675 3.97179ZM5.17886 6.33243C3.5915 6.33243 2.30469 7.61924 2.30469 9.2066V11.6271C2.30469 13.2144 3.5915 14.5013 5.17886 14.5013H10.8219C12.4092 14.5013 13.696 13.2144 13.696 11.6271V9.2066C13.696 7.61924 12.4092 6.33243 10.8219 6.33243H5.17886ZM8.74839 9.61085C8.74839 9.19697 8.41287 8.86146 7.999 8.86146C7.58512 8.86146 7.2496 9.19697 7.2496 9.61085V11.2221C7.2496 11.636 7.58512 11.9715 7.999 11.9715C8.41287 11.9715 8.74839 11.636 8.74839 11.2221V9.61085Z" fill="#FF8B00"/>
    </g>
</svg>
