<svg width="80" height="80" viewBox="0 0 80 80" fill="none" xmlns="http://www.w3.org/2000/svg">
<g clip-path="url(#clip0_4536_9298)">
<rect width="80" height="80" rx="40" fill="#B6B6B6"/>
<path fill-rule="evenodd" clip-rule="evenodd" d="M27.4474 29.1699C28.3755 29.1699 29.1279 29.9223 29.1279 30.8504V35.0517C29.1279 35.1212 29.1237 35.1896 29.1155 35.2569H49.5866C49.5784 35.1896 49.5742 35.1212 49.5742 35.0517V30.8504C49.5742 29.9223 50.3266 29.1699 51.2548 29.1699C52.1829 29.1699 52.9353 29.9223 52.9353 30.8504V35.0517C52.9353 35.1212 52.9311 35.1896 52.9229 35.2569H63.1314C64.3689 35.2569 65.3721 36.2601 65.3721 37.4976V44.3302H13.7824V46.5708H65.3721V78.8739C65.3721 80.1114 64.3689 81.1145 63.1314 81.1145H16.0229C14.7854 81.1145 13.7822 80.1114 13.7822 78.8739V37.4976C13.7822 36.2601 14.7854 35.2569 16.0229 35.2569H25.7793C25.7711 35.1896 25.7669 35.1212 25.7669 35.0517V30.8504C25.7669 29.9223 26.5193 29.1699 27.4474 29.1699Z" fill="white"/>
<rect x="24" y="53" width="4.05042" height="4.05042" rx="1.35014" fill="#B6B6B6"/>
<rect x="33.4512" y="53" width="4.05042" height="4.05042" rx="1.35014" fill="#B6B6B6"/>
<rect x="42.9023" y="53" width="4.05042" height="4.05042" rx="1.35014" fill="#B6B6B6"/>
<rect x="52.3525" y="53" width="4.05042" height="4.05042" rx="1.35014" fill="#B6B6B6"/>
<rect x="24" y="59.752" width="4.05042" height="4.05042" rx="1.35014" fill="#B6B6B6"/>
<rect x="33.4512" y="59.752" width="4.05042" height="4.05042" rx="1.35014" fill="#B6B6B6"/>
<rect x="42.9023" y="59.752" width="4.05042" height="4.05042" rx="1.35014" fill="#B6B6B6"/>
<rect x="52.3525" y="59.752" width="4.05042" height="4.05042" rx="1.35014" fill="#B6B6B6"/>
</g>
<defs>
<clipPath id="clip0_4536_9298">
<rect width="80" height="80" rx="40" fill="white"/>
</clipPath>
</defs>
</svg>
