<svg width="77" height="15" viewBox="0 0 77 15" fill="none" xmlns="http://www.w3.org/2000/svg">
    <rect width="76.8898" height="15" fill="white"/>
    <path d="M0.412113 0H0V15H0.412113V0Z" fill="#FF9E3E"/>
    <path d="M5.54492 0V8.29359C5.54492 8.60327 5.86088 8.85334 6.2514 8.85334H7.58586C7.97638 8.85334 8.29234 8.60327 8.29234 8.29359V0.00165768H5.54492V0Z" fill="#FF9E3E"/>
    <path d="M7.125 8.85156H6.71289V14.9999H7.125V8.85156Z" fill="#FF9E3E"/>
    <path d="M13.4277 0V8.29193C13.4277 8.60161 13.7437 8.85168 14.1342 8.85168H15.4687C15.8592 8.85168 16.1751 8.60161 16.1771 8.29193V0H13.4277Z" fill="#FF9E3E"/>
    <path d="M15.0078 8.85156H14.5957V14.9999H15.0078V8.85156Z" fill="#FF9E3E"/>
    <path d="M21.3105 0V8.29065C21.3105 8.60029 21.6265 8.85031 22.017 8.85031H23.3515C23.742 8.85031 24.058 8.60029 24.058 8.29065V0H21.3105Z" fill="#FF9E3E"/>
    <path d="M22.8906 8.85059H22.4785V15.0003H22.8906V8.85059Z" fill="#FF9E3E"/>
    <path d="M29.1914 0V8.29065C29.1914 8.60029 29.5074 8.85031 29.8979 8.85031H31.2323C31.6229 8.85031 31.9388 8.60029 31.9388 8.29065V0H29.1914Z" fill="#FF9E3E"/>
    <path d="M30.7715 8.85059H30.3594V15.0003H30.7715V8.85059Z" fill="#FF9E3E"/>
    <path d="M37.0723 0V8.29065C37.0723 8.60029 37.3882 8.85031 37.7787 8.85031H39.1132C39.5037 8.85031 39.8197 8.60029 39.8197 8.29065V0H37.0723Z" fill="#FF9E3E"/>
    <path d="M38.6523 8.85059H38.2402V15.0003H38.6523V8.85059Z" fill="#FF9E3E"/>
    <path d="M44.9531 0V8.29065C44.9531 8.60029 45.2691 8.85031 45.6596 8.85031H46.9941C47.3846 8.85031 47.7005 8.60029 47.7005 8.29065V0H44.9531Z" fill="#FF9E3E"/>
    <path d="M46.5332 8.85059H46.1211V15.0003H46.5332V8.85059Z" fill="#FF9E3E"/>
    <path d="M52.834 0V8.29065C52.834 8.60029 53.1499 8.85031 53.5405 8.85031H54.8749C55.2654 8.85031 55.5814 8.60029 55.5814 8.29065V0H52.834Z" fill="#FF9E3E"/>
    <path d="M54.4141 8.85059H54.002V15.0003H54.4141V8.85059Z" fill="#FF9E3E"/>
    <path d="M60.7148 0V8.29065C60.7148 8.60029 61.0308 8.85031 61.4213 8.85031H62.7558C63.1463 8.85031 63.4623 8.60029 63.4623 8.29065V0H60.7148Z" fill="#FF9E3E"/>
    <path d="M62.2949 8.85059H61.8828V15.0003H62.2949V8.85059Z" fill="#FF9E3E"/>
    <path d="M68.5957 0V8.29065C68.5957 8.60029 68.9117 8.85031 69.3022 8.85031H70.6366C71.0272 8.85031 71.3431 8.60029 71.3431 8.29065V0H68.5957Z" fill="#FF9E3E"/>
    <path d="M70.1758 8.85059H69.7637V15.0003H70.1758V8.85059Z" fill="#FF9E3E"/>
    <path d="M76.8906 0H76.4785V15H76.8906V0Z" fill="#FF9E3E"/>
</svg>
