<svg width="48" height="44" viewBox="0 0 48 44" fill="none" xmlns="http://www.w3.org/2000/svg">
<g id="Frame 1948757527">
<path id="Vector" d="M48 43.8784C47.9137 43.8784 47.8273 43.8784 47.741 43.8784C33.587 43.8784 19.4329 43.8764 5.27889 43.8826C4.12477 43.8826 3.07632 43.5876 2.16049 42.8928C0.886189 41.9266 0.204492 40.6322 0.130589 39.0278C0.125755 38.9235 0.127136 38.8192 0.127136 38.7156C0.127136 26.2061 0.127136 13.6965 0.127136 1.18701L0.127136 0.944584H44.691V3.5581H2.75378V3.75218C2.75378 15.4336 2.75723 27.1157 2.74963 38.7971C2.74894 40.1467 3.80637 41.2172 5.071 41.2497C6.37983 41.2836 7.50563 40.2241 7.52566 38.9166C7.52704 38.8399 7.52635 38.7633 7.52635 38.6866C7.52635 28.8196 7.52635 18.9519 7.52635 9.0849V8.84592H47.9993V43.8784H48ZM10.2435 41.2428C10.3119 41.2463 10.3657 41.2504 10.4196 41.2504C13.5767 41.2504 16.7338 41.2497 19.8915 41.2545C20.0476 41.2545 20.0801 41.2055 20.0801 41.0598C20.0766 37.02 20.0773 32.9802 20.0766 28.9405C20.0766 28.8831 20.0704 28.8251 20.0663 28.7533H17.4845L17.4845 11.4809H12.8218V28.7574H10.2435L10.2435 41.2428ZM35.4829 28.7588V41.2359H45.2905V28.7512L42.7149 28.7512V11.4802H38.046V28.7588H35.4836H35.4829ZM30.1053 28.7519L30.1053 11.4788H25.4377L25.4377 28.7616H22.867V41.2359H32.6767V28.7526H30.1053V28.7519Z" fill="url(#paint0_linear_312_7225)"/>
<path id="Vector_2" d="M5.81152 37.5395H4.50684L4.50684 5.5515L46.1201 5.5515V6.85411L5.81152 6.85411L5.81152 37.5395Z" fill="url(#paint1_linear_312_7225)"/>
</g>
<defs>
<linearGradient id="paint0_linear_312_7225" x1="0.126953" y1="22.4136" x2="48" y2="22.4136" gradientUnits="userSpaceOnUse">
<stop stop-color="#FFB05A"/>
<stop offset="0.705" stop-color="#FF8B06"/>
<stop offset="1" stop-color="#FF8B00"/>
</linearGradient>
<linearGradient id="paint1_linear_312_7225" x1="4.50684" y1="21.5455" x2="46.1201" y2="21.5455" gradientUnits="userSpaceOnUse">
<stop stop-color="#FFB05A"/>
<stop offset="0.705" stop-color="#FF8B06"/>
<stop offset="1" stop-color="#FF8B00"/>
</linearGradient>
</defs>
</svg>
