<svg width="81" height="80" viewBox="0 0 81 80" fill="none" xmlns="http://www.w3.org/2000/svg">
<g clip-path="url(#clip0_5684_20003)">
<rect x="0.5" width="80" height="80" rx="40" fill="#E1E1E1"/>
<rect x="24.5" y="59.752" width="4.05042" height="4.05042" rx="1.35014" fill="#B6B6B6"/>
<rect x="33.9512" y="59.752" width="4.05042" height="4.05042" rx="1.35014" fill="#B6B6B6"/>
<rect x="43.4023" y="59.752" width="4.05042" height="4.05042" rx="1.35014" fill="#B6B6B6"/>
<rect x="52.8535" y="59.752" width="4.05042" height="4.05042" rx="1.35014" fill="#B6B6B6"/>
<path d="M19.6574 69.282C20.3218 65.2954 20.6541 63.3021 21.8076 61.9109C22.3096 61.3054 22.9144 60.7931 23.5942 60.3974C25.1561 59.4883 27.1769 59.4883 31.2185 59.4883H50.4296C54.4712 59.4883 56.492 59.4883 58.0539 60.3974C58.7337 60.7931 59.3385 61.3054 59.8405 61.9109C60.994 63.3021 61.3263 65.2954 61.9907 69.282C62.8883 74.6677 63.3371 77.3606 62.2817 79.3594C61.8275 80.2195 61.1914 80.9704 60.4176 81.5598C58.6195 82.9295 55.8895 82.9295 50.4296 82.9295H31.2186C25.7586 82.9295 23.0286 82.9295 21.2305 81.5598C20.4567 80.9704 19.8206 80.2195 19.3664 79.3594C18.311 77.3606 18.7598 74.6677 19.6574 69.282Z" fill="#EEEEEE"/>
<g filter="url(#filter0_b_5684_20003)">
<path d="M57.5676 43.86C57.5676 53.7238 50.0711 72.8825 40.8238 72.8825C31.5765 72.8825 24.0801 53.7238 24.0801 43.86C24.0801 33.9962 31.5765 26 40.8238 26C50.0711 26 57.5676 33.9962 57.5676 43.86Z" fill="white"/>
<path d="M57.4001 43.86C57.4001 48.7599 55.5351 55.9897 52.5139 61.9949C51.0039 64.9963 49.2098 67.6819 47.2244 69.6148C45.2381 71.5487 43.0754 72.715 40.8238 72.715C38.5723 72.715 36.4095 71.5487 34.4232 69.6148C32.4378 67.6819 30.6438 64.9963 29.1338 61.9949C26.1126 55.9897 24.2475 48.7599 24.2475 43.86C24.2475 34.0783 31.679 26.1674 40.8238 26.1674C49.9686 26.1674 57.4001 34.0783 57.4001 43.86Z" stroke="url(#paint0_linear_5684_20003)" stroke-width="0.334875"/>
</g>
<circle opacity="0.2" cx="40.8225" cy="42.7434" r="6.53101" fill="#B6B6B6" stroke="url(#paint1_linear_5684_20003)" stroke-width="0.332977"/>
</g>
<defs>
<filter id="filter0_b_5684_20003" x="17.3826" y="19.3025" width="46.8833" height="60.2778" filterUnits="userSpaceOnUse" color-interpolation-filters="sRGB">
<feFlood flood-opacity="0" result="BackgroundImageFix"/>
<feGaussianBlur in="BackgroundImageFix" stdDeviation="3.34875"/>
<feComposite in2="SourceAlpha" operator="in" result="effect1_backgroundBlur_5684_20003"/>
<feBlend mode="normal" in="SourceGraphic" in2="effect1_backgroundBlur_5684_20003" result="shape"/>
</filter>
<linearGradient id="paint0_linear_5684_20003" x1="40.8238" y1="26" x2="57.5676" y2="76.2312" gradientUnits="userSpaceOnUse">
<stop stop-color="white"/>
<stop offset="0.76944" stop-color="white" stop-opacity="0"/>
</linearGradient>
<linearGradient id="paint1_linear_5684_20003" x1="37.5979" y1="38.2629" x2="45.2563" y2="46.9203" gradientUnits="userSpaceOnUse">
<stop stop-color="white"/>
<stop offset="1" stop-color="white" stop-opacity="0"/>
</linearGradient>
<clipPath id="clip0_5684_20003">
<rect x="0.5" width="80" height="80" rx="40" fill="white"/>
</clipPath>
</defs>
</svg>
